<svg width="170" height="170" viewBox="0 0 170 170" fill="none" xmlns="http://www.w3.org/2000/svg">
<rect x="16.5" y="12.5" width="137" height="138" stroke="#767676" stroke-width="3"/>
<mask id="path-2-inside-1_1323_1585" fill="white">
<path d="M15 129.699L46.6995 75.5289C48.6505 72.1949 53.4842 72.2383 55.375 75.6069L85.7368 129.699L115.147 92.7754C117.096 90.3292 120.787 90.252 122.836 92.6145L155 129.699V152H15V129.699Z"/>
</mask>
<path d="M15 129.699L12.4107 128.184L12 128.886V129.699H15ZM155 129.699H158V128.579L157.266 127.733L155 129.699ZM155 152V155H158V152H155ZM15 152H12V155H15V152ZM85.7368 129.699L83.1208 131.168L85.3042 135.057L88.0834 131.568L85.7368 129.699ZM115.147 92.7754L112.801 90.9063L115.147 92.7754ZM122.836 92.6145L125.102 90.6489L122.836 92.6145ZM55.375 75.6069L52.7589 77.0753L55.375 75.6069ZM152 129.699V152H158V129.699H152ZM155 149H15V155H155V149ZM18 152V129.699H12V152H18ZM17.5893 131.214L49.2887 77.0441L44.1102 74.0137L12.4107 128.184L17.5893 131.214ZM52.7589 77.0753L83.1208 131.168L88.3529 128.231L57.9911 74.1385L52.7589 77.0753ZM88.0834 131.568L117.494 94.6445L112.801 90.9063L83.3903 127.83L88.0834 131.568ZM120.569 94.5801L152.734 131.665L157.266 127.733L125.102 90.6489L120.569 94.5801ZM117.494 94.6445C118.273 93.666 119.75 93.6351 120.569 94.5801L125.102 90.6489C121.823 86.8688 115.918 86.9924 112.801 90.9063L117.494 94.6445ZM49.2887 77.0441C50.0691 75.7105 52.0026 75.7279 52.7589 77.0753L57.9911 74.1385C54.9658 68.7488 47.2319 68.6793 44.1102 74.0137L49.2887 77.0441Z" fill="#767676" mask="url(#path-2-inside-1_1323_1585)"/>
<path d="M119.5 52.5C119.5 58.0864 115.185 62.5 110 62.5C104.815 62.5 100.5 58.0864 100.5 52.5C100.5 46.9136 104.815 42.5 110 42.5C115.185 42.5 119.5 46.9136 119.5 52.5Z" stroke="#767676" stroke-width="3"/>
<rect x="1.5" y="1.5" width="167" height="167" stroke="#767676" stroke-width="3"/>
</svg>
