<?xml version="1.0" encoding="utf-8"?>
<!-- Generator: Adobe Illustrator 23.0.3, SVG Export Plug-In . SVG Version: 6.00 Build 0)  -->
<svg version="1.1"
	 id="svg3015" sodipodi:docname="Compass-Rose-BW.svg" xmlns:cc="http://creativecommons.org/ns#" xmlns:dc="http://purl.org/dc/elements/1.1/" xmlns:inkscape="http://www.inkscape.org/namespaces/inkscape" xmlns:ns1="http://sozi.baierouge.fr" xmlns:rdf="http://www.w3.org/1999/02/22-rdf-syntax-ns#" xmlns:sodipodi="http://sodipodi.sourceforge.net/DTD/sodipodi-0.dtd" xmlns:svg="http://www.w3.org/2000/svg"
	 xmlns="http://www.w3.org/2000/svg" xmlns:xlink="http://www.w3.org/1999/xlink" x="0px" y="0px" viewBox="0 0 475 472"
	 style="enable-background:new 0 0 475 472;" xml:space="preserve">
<style type="text/css">
	.st0{fill:none;stroke:#000000;stroke-width:0.25;}
	.st1{stroke:#000000;stroke-width:0.25;}
	.st2{fill:none;stroke:#FFFFFF;}
	.st3{fill:#FFFFFF;stroke:#000000;stroke-width:0.25;}
	.st4{font-family:'ArialNarrow-Bold';}
	.st5{font-size:90px;}
	.st6{display:none;}
	.st7{display:inline;}
	.st8{font-family:'Impact';}
	.st9{font-size:80px;}
</style>
<title  id="title3013">Compass Rose</title>
<sodipodi:namedview  bordercolor="#666666" borderopacity="1.0" fit-margin-bottom="2" fit-margin-left="2" fit-margin-right="2" fit-margin-top="2" id="base" inkscape:current-layer="layer1" inkscape:cx="133.92857" inkscape:cy="136.06639" inkscape:document-units="px" inkscape:pageopacity="0.0" inkscape:pageshadow="2" inkscape:window-height="1024" inkscape:window-maximized="0" inkscape:window-width="1000" inkscape:window-x="918" inkscape:window-y="26" inkscape:zoom="2.8" pagecolor="#ffffff" showgrid="false">
	</sodipodi:namedview>
<g id="layer1" transform="translate(2.5,2.5)" inkscape:groupmode="layer" inkscape:label="Layer 1">
	<g id="ring">
		
			<path id="inner-line" sodipodi:cx="156" sodipodi:cy="156" sodipodi:rx="72" sodipodi:ry="72" sodipodi:type="arc" class="st0" d="
			M306,238.1c0,39.8-32.2,72-72,72s-72-32.2-72-72s32.2-72,72-72S306,198.3,306,238.1z"/>
		
			<path id="outer-line" sodipodi:cx="156" sodipodi:cy="156" sodipodi:rx="96" sodipodi:ry="96" sodipodi:type="arc" class="st0" d="
			M330,238.1c0,53-43,96-96,96s-96-43-96-96s43-96,96-96S330,185.1,330,238.1z"/>
		<path id="ring-fill" inkscape:connector-curvature="0" class="st1" d="M234,142.1c-53,0-96,43-96,96s43,96,96,96s96-43,96-96
			S287,142.1,234,142.1z M234,166.1c39.8,0,72,32.2,72,72s-32.2,72-72,72s-72-32.2-72-72S194.2,166.1,234,166.1z"/>
	</g>
	<g id="major-rose-edge">
		<path id="highlight-north" inkscape:connector-curvature="0" class="st2" d="M234,238.1l24-24l-24-132"/>
		<path id="highlight-east" inkscape:connector-curvature="0" class="st2" d="M234,238.1l24,24l132-24"/>
		<path id="highlight-south" inkscape:connector-curvature="0" class="st2" d="M234,238.1l-24,24l24,132"/>
		<path id="highlight-west" inkscape:connector-curvature="0" class="st2" d="M234,238.1l-24-24l-132,24"/>
	</g>
	<g id="minor-rose">
		<g id="light-minor">
			<path id="light-northeast" inkscape:connector-curvature="0" class="st3" d="M234,238.1l48-48l-48,23"/>
			<path id="light-southeast" inkscape:connector-curvature="0" class="st3" d="M234,238.1l48,48l-23-48"/>
			<path id="light-southwest" inkscape:connector-curvature="0" class="st3" d="M234,238.1l-48,48l48-23"/>
			<path id="light-northwest" inkscape:connector-curvature="0" class="st3" d="M234,238.1l-48-48l23,48"/>
		</g>
		<g id="dark-minor">
			<path id="dark-northeast" inkscape:connector-curvature="0" d="M234,238.1l48-48l-23,48"/>
			<path id="dark-southeast" inkscape:connector-curvature="0" d="M234,238.1l48,48l-48-23"/>
			<path id="dark-southwest" inkscape:connector-curvature="0" d="M234,238.1l-48,48l23-48"/>
			<path id="dark-northwest" inkscape:connector-curvature="0" d="M234,238.1l-48-48l48,23"/>
		</g>
	</g>
	<g id="major-rose">
		<g id="light-major">
			<path id="light-north" inkscape:connector-curvature="0" class="st3" d="M234,238.1l-24-24l24-132"/>
			<path id="light-east" inkscape:connector-curvature="0" class="st3" d="M234,238.1l24-24l132,24"/>
			<path id="light-south" inkscape:connector-curvature="0" class="st3" d="M234,238.1l24,24l-24,132"/>
			<path id="light-west" inkscape:connector-curvature="0" class="st3" d="M234,238.1l-24,24l-132-24"/>
		</g>
		<g id="dark-major">
			<path id="dark-north" inkscape:connector-curvature="0" d="M234,238.1l24-24l-24-132"/>
			<path id="dark-east" inkscape:connector-curvature="0" d="M234,238.1l24,24l132-24"/>
			<path id="dark-south" inkscape:connector-curvature="0" d="M234,238.1l-24,24l24,132"/>
			<path id="dark-west" inkscape:connector-curvature="0" d="M234,238.1l-24-24l-132,24"/>
		</g>
	</g>
</g>
<g>
	<text transform="matrix(1 0 0 1 405 270)" class="st4 st5">В</text>
	<text transform="matrix(1 0 0 1 24 271)" class="st4 st5">З</text>
	<text transform="matrix(1 0 0 1 200 470)" class="st4 st5">Ю</text>
	<text transform="matrix(1 0 0 1 207 76)" class="st4 st5">С</text>
</g>
<g class="st6">
	<text transform="matrix(1 0 0 1 23 271)" class="st7 st8 st9">З</text>
	<text transform="matrix(1 0 0 1 409 269)" class="st7 st8 st9">В</text>
	<text transform="matrix(1 0 0 1 208 470)" class="st7 st8 st9">Ю</text>
	<text transform="matrix(1 0 0 1 213 70)" class="st7 st8 st9">С</text>
</g>
</svg>
