<?xml version="1.0" encoding="UTF-8" standalone="no"?>
<svg
   xmlns:dc="http://purl.org/dc/elements/1.1/"
   xmlns:cc="http://creativecommons.org/ns#"
   xmlns:rdf="http://www.w3.org/1999/02/22-rdf-syntax-ns#"
   xmlns:svg="http://www.w3.org/2000/svg"
   xmlns="http://www.w3.org/2000/svg"
   xmlns:sodipodi="http://sodipodi.sourceforge.net/DTD/sodipodi-0.dtd"
   xmlns:inkscape="http://www.inkscape.org/namespaces/inkscape"
   version="1.1"
   width="600"
   height="600"
   style="fill-opacity:1;fill-rule:evenodd;stroke;stroke-opacity:1;stroke-width:1;stroke-dasharray:none;stroke-linecap:square;stroke-linejoin:miter;stroke-miterlimit:9;text-anchor:middle;text-align:start;writing-mode:lr-tb;line-height:normal;font-family:sans-serif;font-weight:bold;font-style:normal;font-variant:normal;font-stretch:normal;font-size:32px"
   id="svg12"
   sodipodi:docname="compass1.svg"
   inkscape:version="0.92.4 (5da689c313, 2019-01-14)">
  <defs
     id="defs16" />
  <sodipodi:namedview
     pagecolor="#ffffff"
     bordercolor="#666666"
     borderopacity="1"
     objecttolerance="10"
     gridtolerance="10"
     guidetolerance="10"
     inkscape:pageopacity="0"
     inkscape:pageshadow="2"
     inkscape:window-width="1920"
     inkscape:window-height="1020"
     id="namedview14"
     showgrid="false"
     inkscape:zoom="0.78666667"
     inkscape:cx="281.0169"
     inkscape:cy="232.3065"
     inkscape:window-x="0"
     inkscape:window-y="31"
     inkscape:window-maximized="1"
     inkscape:current-layer="g10" />
  <metadata
     id="metadata2">
    <rdf:RDF>
      <cc:Work
         rdf:about="">
        <dc:format>image/svg+xml</dc:format>
        <dc:type
           rdf:resource="http://purl.org/dc/dcmitype/StillImage" />
      </cc:Work>
    </rdf:RDF>
  </metadata>
  <g
     transform="translate(300,300)"
     style="fill:#000;stroke:none"
     id="g10">
    <path
       id="cross"
       style="fill:#ffffff;stroke:#000000"
       d="M 0,-220.11864 57.152543,-59.694916 219.48305,-1.2711865 57.152543,54.61017 0,220.11864 -59.694916,55.881359 -223.29661,0 -62.237289,-54.61017 Z"
       inkscape:connector-curvature="0"
       sodipodi:nodetypes="ccccccccc" />
    <path
       id="sides"
       d="M 0,0 V -220.11864 L -62.237289,-54.61017 0,0 219.48305,-1.2711865 57.152543,-59.694916 0,0 V 220.11864 L 57.152543,54.61017 0,0 h -223.29661 l 163.601694,55.881359 z"
       inkscape:connector-curvature="0"
       sodipodi:nodetypes="ccccccccccccc" />
    <path
       id="N"
       d="m -25.440678,-253.16949 v -47 h 15.957022 l 21.276029,32.3125 v -32.3125 H 24.20339 v 47 H 8.246368 l -21.276029,-32.3125 v 32.3125 z"
       inkscape:connector-curvature="0"
       style="stroke-width:1.61372161" />
    <path
       id="E"
       d="m 251.13559,22.745768 v -47.25424 h 49.42373 v 8.86017 h -32.94915 v 10.3368603 h 28.8305 v 8.86017 h -28.8305 V 13.885598 h 32.94915 v 8.86017 z"
       inkscape:connector-curvature="0"
       style="stroke-width:1.74384367" />
    <path
       id="S"
       d="m -23.084746,285.0625 c 10.03178,3.11229 18.0572039,4.66844 23.0730929,4.66844 4.012712,0 9.0286021,-2.33422 9.0286021,-4.66844 0,-3.11229 -3.0095341,-4.66843 -9.0286021,-6.22457 -7.022245,-1.55615 -14.0444909,-3.89037 -19.0603809,-7.78072 -4.012712,-3.1123 -4.012712,-5.44651 -4.012712,-8.55881 0,-3.11228 2.006356,-6.22457 6.019068,-9.33685 4.012712,-3.11229 10.0317799,-3.89036 18.0572029,-3.89036 8.0254241,0 16.0508431,2.33421 24.0762731,4.66842 l -5.01589,7.78073 c -5.01589,-1.55614 -13.0413151,-3.11229 -18.0572051,-3.11229 -4.012711,0 -9.028601,2.33422 -9.028601,4.66843 0,3.11229 3.009534,4.66843 9.028601,6.22458 7.0222461,1.55615 14.0444951,3.89035 19.0603851,7.78072 4.01271,3.11229 4.01271,5.4465 4.01271,8.55879 0,3.11229 -2.00636,6.22457 -6.01907,9.33687 -4.01271,3.11229 -10.031779,3.89036 -18.0572031,3.89036 -8.025423,0 -16.0508469,-2.33422 -24.0762709,-4.66844 z"
       inkscape:connector-curvature="0"
       style="stroke-width:1.76696885" />
    <path
       id="W"
       d="m -273.11864,-24.845767 c 7.76345,0 13.66367,1.91585 18.32174,6.33706 4.65807,4.4212 6.67657,10.02139 6.67657,17.3900604 0,7.36867 -2.0185,12.9688596 -6.67657,17.3900596 -4.65807,4.4212 -10.55829,6.33706 -18.32174,6.33706 -7.76345,0 -13.66367,-1.91586 -18.32174,-6.33706 -4.65807,-4.4212 -6.67656,-10.0213896 -6.67656,-17.3900596 0,-7.3686704 2.01849,-12.9688604 6.67656,-17.3900604 4.65807,-4.42121 10.55829,-6.33706 18.32174,-6.33706 z m 0,8.69503 c -3.72646,0 -6.67657,1.32636 -8.69506,3.83171 -2.0185,2.65272 -3.10538,6.3370604 -3.10538,11.2003804 0,4.71595 1.08688,8.25291 3.10538,11.2003796 2.01849,2.65272 4.9686,3.83171 8.69506,3.83171 3.72646,0 6.67657,-1.32636 8.69506,-3.83171 2.0185,-2.6527196 3.10538,-6.3370596 3.10538,-11.2003796 0,-4.71595 -1.08688,-8.2529104 -3.10538,-11.2003804 -2.01849,-2.65272 -4.9686,-3.83171 -8.69506,-3.83171 z"
       inkscape:connector-curvature="0"
       style="stroke-width:1.51269686" />
  </g>
</svg>
