<svg width="120" height="121" viewBox="0 0 120 121" fill="none" xmlns="http://www.w3.org/2000/svg">
<path d="M60 108.186C72.7304 108.186 84.9394 103.129 93.9411 94.1269C102.943 85.1251 108 72.9161 108 60.1857C108 47.4553 102.943 35.2464 93.9411 26.2446C84.9394 17.2429 72.7304 12.1857 60 12.1857C47.2696 12.1857 35.0606 17.2429 26.0589 26.2446C17.0571 35.2464 12 47.4553 12 60.1857C12 72.9161 17.0571 85.1251 26.0589 94.1269C35.0606 103.129 47.2696 108.186 60 108.186ZM60 0.18573C67.8793 0.18573 75.6815 1.73768 82.961 4.75296C90.2405 7.76824 96.8549 12.1878 102.426 17.7593C107.998 23.3308 112.417 29.9452 115.433 37.2247C118.448 44.5043 120 52.3064 120 60.1857C120 76.0987 113.679 91.36 102.426 102.612C91.1742 113.864 75.913 120.186 60 120.186C26.82 120.186 0 93.1857 0 60.1857C0 44.2727 6.32141 29.0115 17.5736 17.7593C28.8258 6.50714 44.087 0.18573 60 0.18573ZM63 30.1857V61.6857L90 77.7057L85.5 85.0857L54 66.1857V30.1857H63Z" fill="#DAE2E8" fill-opacity="0.2"/>
</svg>
