<svg width="120" height="129" viewBox="0 0 120 129" fill="none" xmlns="http://www.w3.org/2000/svg">
<g clip-path="url(#clip0_1240_360)">
<path d="M12.3793 69.8966L53.7586 119.552C57.3793 123.69 61.6034 125.759 66.431 125.759C70.7414 125.759 74.4483 124.466 77.5517 121.879L113.5 91.6207C116.948 88.5173 118.931 84.638 119.448 79.9828C119.966 75.6725 118.672 71.4483 115.569 67.3104L74.1897 17.6552C69.7069 11.7931 63.8448 8.08624 56.6035 6.53452L20.6552 -1.74134C17.2069 -2.77583 13.931 -1.99996 10.8276 0.586243L6.43104 4.46555C3.84483 6.36211 2.55173 9.46555 2.55173 13.7759L4.62069 50.7587C5.48276 58.1724 8.06897 64.5518 12.3793 69.8966ZM18.5862 8.86211L55.0517 17.6552C58.8448 18.5173 62.6379 20.8449 66.431 24.638L107.81 74.2931C109.19 75.6724 109.621 77.2242 109.103 78.9483C109.103 79.9828 108.328 81.4483 106.776 83.3449L70.8276 113.603C69.6207 114.638 68.1552 115.112 66.431 115.026C64.7069 114.94 63.4138 114.293 62.5517 113.086L21.1724 63.4311C17.8966 59.2931 16.2586 55.069 16.2586 50.7587L13.6724 12.7414L18.5862 8.86211ZM33.3276 26.9656C33.3276 28.5173 32.8103 29.8104 31.7759 30.8449C30.7414 31.8793 29.4483 32.3966 27.8966 32.3966C26.3448 32.3966 25.0517 31.8793 24.0172 30.8449C22.9828 29.8104 22.4655 28.5173 22.4655 26.9656C22.4655 25.4138 22.9828 24.1207 24.0172 23.0862C25.0517 22.0518 26.3448 21.5345 27.8966 21.5345C29.4483 21.5345 30.7414 22.0518 31.7759 23.0862C32.8103 24.1207 33.3276 25.4138 33.3276 26.9656ZM36.1724 65.5L86.8621 81.5345H88.6724C91.0862 81.5345 92.8966 80.2414 94.1034 77.6552C94.6207 76.2759 94.5345 74.8966 93.8448 73.5173C93.1552 72.138 92.1207 71.1897 90.7414 70.6724L40.0517 54.638C38.6724 53.9483 37.25 53.9483 35.7845 54.638C34.319 55.3276 33.3276 56.3621 32.8103 57.7414C31.7759 61.7069 32.8966 64.2931 36.1724 65.5ZM77.5517 90.3276C77.5517 92.569 76.7759 94.5087 75.2241 96.1466C73.6724 97.7845 71.6897 98.6035 69.2759 98.6035C66.8621 98.6035 64.8793 97.7845 63.3276 96.1466C61.7759 94.5087 61 92.569 61 90.3276C61 88.0862 61.819 86.1466 63.4569 84.5087C65.0948 82.8707 67.0345 82.0518 69.2759 82.0518C71.5172 82.0518 73.4569 82.8707 75.0948 84.5087C76.7328 86.1466 77.5517 88.0862 77.5517 90.3276ZM61 46.3621C61 48.6035 60.181 50.5431 58.5431 52.1811C56.9052 53.819 54.9655 54.638 52.7241 54.638C50.4828 54.638 48.5431 53.819 46.9052 52.1811C45.2672 50.5431 44.4483 48.6035 44.4483 46.3621C44.4483 44.1207 45.2241 42.1811 46.7759 40.5431C48.3276 38.9052 50.3103 38.0862 52.7241 38.0862C55.1379 38.0862 57.1207 38.9052 58.6724 40.5431C60.2241 42.1811 61 44.1207 61 46.3621Z" fill="#DAE2E8" fill-opacity="0.2"/>
</g>
<defs>
<clipPath id="clip0_1240_360">
<rect width="120" height="128.276" fill="white"/>
</clipPath>
</defs>
</svg>
