<svg width="482" height="211" viewBox="0 0 482 211" fill="none" xmlns="http://www.w3.org/2000/svg">
<path d="M127.156 130.938H150.359V163.703H127.156V208H86.5156V163.703H2.5625L0.734375 138.109L86.0938 3.25H127.156V130.938ZM41.2344 130.938H86.5156V58.6562L83.8438 63.2969L41.2344 130.938ZM310.109 123.344C310.109 151.656 304.25 173.312 292.531 188.312C280.812 203.312 263.656 210.812 241.062 210.812C218.75 210.812 201.688 203.453 189.875 188.734C178.062 174.016 172.016 152.922 171.734 125.453V87.7656C171.734 59.1719 177.641 37.4687 189.453 22.6562C201.359 7.84375 218.469 0.4375 240.781 0.4375C263.094 0.4375 280.156 7.79687 291.969 22.5156C303.781 37.1406 309.828 58.1875 310.109 85.6562V123.344ZM269.469 82C269.469 65.0312 267.125 52.7031 262.438 45.0156C257.844 37.2344 250.625 33.3438 240.781 33.3438C231.219 33.3438 224.141 37.0469 219.547 44.4531C215.047 51.7656 212.656 63.25 212.375 78.9062V128.688C212.375 145.375 214.625 157.797 219.125 165.953C223.719 174.016 231.031 178.047 241.062 178.047C251 178.047 258.172 174.156 262.578 166.375C266.984 158.594 269.281 146.688 269.469 130.656V82ZM457.906 130.938H481.109V163.703H457.906V208H417.266V163.703H333.312L331.484 138.109L416.844 3.25H457.906V130.938ZM371.984 130.938H417.266V58.6562L414.594 63.2969L371.984 130.938Z" fill="#DAE2E8"/>
<path d="M127.156 130.938H126.156V131.938H127.156V130.938ZM150.359 130.938H151.359V129.938H150.359V130.938ZM150.359 163.703V164.703H151.359V163.703H150.359ZM127.156 163.703V162.703H126.156V163.703H127.156ZM127.156 208V209H128.156V208H127.156ZM86.5156 208H85.5156V209H86.5156V208ZM86.5156 163.703H87.5156V162.703H86.5156V163.703ZM2.5625 163.703L1.56504 163.774L1.63138 164.703H2.5625V163.703ZM0.734375 138.109L-0.11059 137.575L-0.28652 137.853L-0.263084 138.181L0.734375 138.109ZM86.0938 3.25V2.25H85.5432L85.2488 2.71518L86.0938 3.25ZM127.156 3.25H128.156V2.25H127.156V3.25ZM41.2344 130.938L40.3883 130.404L39.4226 131.938H41.2344V130.938ZM86.5156 130.938V131.938H87.5156V130.938H86.5156ZM86.5156 58.6562H87.5156V54.9153L85.649 58.1573L86.5156 58.6562ZM83.8438 63.2969L84.6899 63.8299L84.7005 63.8131L84.7104 63.7958L83.8438 63.2969ZM127.156 131.938H150.359V129.938H127.156V131.938ZM149.359 130.938V163.703H151.359V130.938H149.359ZM150.359 162.703H127.156V164.703H150.359V162.703ZM126.156 163.703V208H128.156V163.703H126.156ZM127.156 207H86.5156V209H127.156V207ZM87.5156 208V163.703H85.5156V208H87.5156ZM86.5156 162.703H2.5625V164.703H86.5156V162.703ZM3.55996 163.632L1.73183 138.038L-0.263084 138.181L1.56504 163.774L3.55996 163.632ZM1.57934 138.644L86.9387 3.78482L85.2488 2.71518L-0.11059 137.575L1.57934 138.644ZM86.0938 4.25H127.156V2.25H86.0938V4.25ZM126.156 3.25V130.938H128.156V3.25H126.156ZM41.2344 131.938H86.5156V129.938H41.2344V131.938ZM87.5156 130.938V58.6562H85.5156V130.938H87.5156ZM85.649 58.1573L82.9771 62.7979L84.7104 63.7958L87.3822 59.1552L85.649 58.1573ZM82.9976 62.7639L40.3883 130.404L42.0805 131.471L84.6899 63.8299L82.9976 62.7639ZM171.734 125.453H170.734L170.734 125.463L171.734 125.453ZM189.453 22.6562L188.674 22.0297L188.671 22.0328L189.453 22.6562ZM291.969 22.5156L291.189 23.1415L291.191 23.144L291.969 22.5156ZM310.109 85.6562H311.109L311.109 85.646L310.109 85.6562ZM262.438 45.0156L261.576 45.524L261.58 45.5301L261.584 45.5362L262.438 45.0156ZM219.547 44.4531L218.697 43.926L218.695 43.929L219.547 44.4531ZM212.375 78.9062L211.375 78.8883L211.375 78.8973V78.9062H212.375ZM219.125 165.953L218.249 166.436L218.256 166.448L219.125 165.953ZM269.469 130.656L270.469 130.668V130.656H269.469ZM309.109 123.344C309.109 151.537 303.272 172.94 291.743 187.697L293.319 188.928C305.228 173.685 311.109 151.775 311.109 123.344H309.109ZM291.743 187.697C280.25 202.408 263.413 209.812 241.062 209.812V211.812C263.9 211.812 281.375 204.217 293.319 188.928L291.743 187.697ZM241.062 209.812C218.992 209.812 202.242 202.546 190.655 188.108L189.095 189.36C201.133 204.36 218.508 211.812 241.062 211.812V209.812ZM190.655 188.108C179.034 173.628 173.014 152.786 172.734 125.443L170.734 125.463C171.017 153.057 177.091 174.403 189.095 189.36L190.655 188.108ZM172.734 125.453V87.7656H170.734V125.453H172.734ZM172.734 87.7656C172.734 59.2882 178.62 37.8448 190.235 23.2797L188.671 22.0328C176.661 37.0927 170.734 59.0555 170.734 87.7656H172.734ZM190.233 23.2827C201.915 8.74881 218.713 1.4375 240.781 1.4375V-0.5625C218.225 -0.5625 200.804 6.93869 188.674 22.0298L190.233 23.2827ZM240.781 1.4375C262.852 1.4375 279.602 8.70352 291.189 23.1415L292.749 21.8897C280.711 6.89023 263.335 -0.5625 240.781 -0.5625V1.4375ZM291.191 23.144C302.81 37.5291 308.829 58.3225 309.109 85.6665L311.109 85.646C310.827 58.0525 304.753 36.7522 292.747 21.8873L291.191 23.144ZM309.109 85.6562V123.344H311.109V85.6562H309.109ZM270.469 82C270.469 64.9846 268.127 52.4253 263.291 44.495L261.584 45.5362C266.123 52.981 268.469 65.0779 268.469 82H270.469ZM263.299 44.5072C258.506 36.3897 250.941 32.3438 240.781 32.3438V34.3438C250.309 34.3438 257.181 38.079 261.576 45.524L263.299 44.5072ZM240.781 32.3438C230.913 32.3438 223.493 36.1931 218.697 43.926L220.397 44.9802C224.788 37.9007 231.524 34.3438 240.781 34.3438V32.3438ZM218.695 43.929C214.052 51.4739 211.657 63.179 211.375 78.8883L213.375 78.9242C213.655 63.321 216.042 52.0574 220.399 44.9772L218.695 43.929ZM211.375 78.9062V128.688H213.375V78.9062H211.375ZM211.375 128.688C211.375 145.429 213.626 158.057 218.249 166.436L220.001 165.47C215.624 157.537 213.375 145.321 213.375 128.688H211.375ZM218.256 166.448C223.045 174.853 230.708 179.047 241.062 179.047V177.047C231.355 177.047 224.393 173.179 219.994 165.458L218.256 166.448ZM241.062 179.047C251.312 179.047 258.842 175.003 263.448 166.868L261.708 165.882C257.502 173.31 250.688 177.047 241.062 177.047V179.047ZM263.448 166.868C267.98 158.865 270.281 146.753 270.469 130.668L268.469 130.645C268.282 146.622 265.989 158.323 261.708 165.882L263.448 166.868ZM270.469 130.656V82H268.469V130.656H270.469ZM457.906 130.938H456.906V131.938H457.906V130.938ZM481.109 130.938H482.109V129.938H481.109V130.938ZM481.109 163.703V164.703H482.109V163.703H481.109ZM457.906 163.703V162.703H456.906V163.703H457.906ZM457.906 208V209H458.906V208H457.906ZM417.266 208H416.266V209H417.266V208ZM417.266 163.703H418.266V162.703H417.266V163.703ZM333.312 163.703L332.315 163.774L332.381 164.703H333.312V163.703ZM331.484 138.109L330.639 137.575L330.463 137.853L330.487 138.181L331.484 138.109ZM416.844 3.25V2.25H416.293L415.999 2.71518L416.844 3.25ZM457.906 3.25H458.906V2.25H457.906V3.25ZM371.984 130.938L371.138 130.404L370.173 131.938H371.984V130.938ZM417.266 130.938V131.938H418.266V130.938H417.266ZM417.266 58.6562H418.266V54.9153L416.399 58.1573L417.266 58.6562ZM414.594 63.2969L415.44 63.8299L415.45 63.8131L415.46 63.7958L414.594 63.2969ZM457.906 131.938H481.109V129.938H457.906V131.938ZM480.109 130.938V163.703H482.109V130.938H480.109ZM481.109 162.703H457.906V164.703H481.109V162.703ZM456.906 163.703V208H458.906V163.703H456.906ZM457.906 207H417.266V209H457.906V207ZM418.266 208V163.703H416.266V208H418.266ZM417.266 162.703H333.312V164.703H417.266V162.703ZM334.31 163.632L332.482 138.038L330.487 138.181L332.315 163.774L334.31 163.632ZM332.329 138.644L417.689 3.78482L415.999 2.71518L330.639 137.575L332.329 138.644ZM416.844 4.25H457.906V2.25H416.844V4.25ZM456.906 3.25V130.938H458.906V3.25H456.906ZM371.984 131.938H417.266V129.938H371.984V131.938ZM418.266 130.938V58.6562H416.266V130.938H418.266ZM416.399 58.1573L413.727 62.7979L415.46 63.7958L418.132 59.1552L416.399 58.1573ZM413.748 62.7639L371.138 130.404L372.831 131.471L415.44 63.8299L413.748 62.7639Z" fill="#005A9B"/>
</svg>
