<svg width="25" height="25" viewBox="0 0 25 25" fill="none" xmlns="http://www.w3.org/2000/svg">
<path fill-rule="evenodd" clip-rule="evenodd" d="M7.81249 9.37498C8.36502 9.37498 8.89493 9.15549 9.28563 8.76478C9.67633 8.37408 9.89582 7.84418 9.89582 7.29165C9.89582 6.73911 9.67633 6.20921 9.28563 5.81851C8.89493 5.42781 8.36502 5.20831 7.81249 5.20831C7.25996 5.20831 6.73005 5.42781 6.33935 5.81851C5.94865 6.20921 5.72916 6.73911 5.72916 7.29165C5.72916 7.84418 5.94865 8.37408 6.33935 8.76478C6.73005 9.15549 7.25996 9.37498 7.81249 9.37498ZM7.81249 8.33331C8.08876 8.33331 8.35371 8.22357 8.54906 8.02822C8.74441 7.83287 8.85416 7.56791 8.85416 7.29165C8.85416 7.01538 8.74441 6.75043 8.54906 6.55508C8.35371 6.35973 8.08876 6.24998 7.81249 6.24998C7.53622 6.24998 7.27127 6.35973 7.07592 6.55508C6.88057 6.75043 6.77082 7.01538 6.77082 7.29165C6.77082 7.56791 6.88057 7.83287 7.07592 8.02822C7.27127 8.22357 7.53622 8.33331 7.81249 8.33331Z" fill="#005A9B"/>
<path d="M9.51459 12.1885L6.54584 10.9375L9.51459 12.1896V12.1885Z" fill="#005A9B"/>
<path d="M9.51459 12.1885L9.60417 12.2265L9.51459 12.0911V12.1885Z" fill="#005A9B"/>
<path fill-rule="evenodd" clip-rule="evenodd" d="M5.11459 10.4114C5.40781 10.189 5.90209 9.89581 6.54636 9.89581H9.14844C9.85834 9.89581 10.388 10.2698 10.6458 10.4781C10.9479 10.7224 11.2094 11.0161 11.4115 11.2672C11.7339 11.6661 12.0313 12.1187 12.201 12.3755L12.2047 12.3807C12.2458 12.4432 12.2771 12.4911 12.3005 12.5255C12.4083 12.6844 12.4828 12.8568 12.526 13.0328C12.5641 12.8307 12.6438 12.6333 12.7682 12.4526C12.8198 12.3781 12.8818 12.2849 12.9542 12.1765L12.9599 12.1672C13.1578 11.8693 13.425 11.4677 13.6891 11.139C13.8766 10.9052 14.1224 10.6302 14.4198 10.4026C14.7026 10.1859 15.1844 9.89581 15.8146 9.89581H18.3297C19.024 9.89581 19.5401 10.2656 19.788 10.4682C20.0807 10.7073 20.3328 10.9943 20.5281 11.239C20.8391 11.6286 21.1271 12.0708 21.2901 12.3213L21.2922 12.325L21.2938 12.3271L21.2969 12.3318C21.3354 12.3906 21.3646 12.4359 21.3865 12.4682C21.5432 12.702 21.6319 12.9747 21.6426 13.256C21.6533 13.5373 21.5857 13.816 21.4471 14.061C21.3086 14.306 21.1047 14.5077 20.8581 14.6435C20.6116 14.7794 20.3322 14.844 20.051 14.8302C20.201 15.3734 20.3453 15.8672 20.4495 16.2151C20.613 16.7635 20.2844 17.3562 19.7036 17.4776C17.8234 17.8708 16.4932 17.8583 14.4724 17.4724C14.3343 17.4456 14.2034 17.39 14.0883 17.3091C13.9732 17.2283 13.8765 17.1241 13.8044 17.0033C13.7323 16.8825 13.6866 16.7479 13.6701 16.6082C13.6536 16.4685 13.6669 16.3269 13.7089 16.1927C13.8161 15.8474 13.963 15.3635 14.113 14.8291C13.7735 14.8509 13.4366 14.7575 13.1568 14.564C12.8517 14.3544 12.6341 14.0401 12.5453 13.6807C12.5085 13.8854 12.4312 14.0807 12.3177 14.255C12.2043 14.4294 12.0572 14.5792 11.8849 14.6958C11.6957 14.8245 11.4805 14.9099 11.2546 14.9461C11.0286 14.9823 10.7975 14.9683 10.5776 14.9052L10.5807 14.9312L10.9281 18.0562C10.9738 18.4611 10.8594 18.8678 10.6095 19.1896C10.3596 19.5114 9.99393 19.7228 9.59037 19.7789C9.18681 19.8349 8.77733 19.7311 8.4492 19.4896C8.12108 19.248 7.90028 18.8879 7.83386 18.4859L7.8125 18.3583L7.79167 18.4859C7.72796 18.8904 7.50803 19.2537 7.17919 19.4977C6.85035 19.7416 6.43889 19.8468 6.03332 19.7905C5.62775 19.7341 5.26049 19.5209 5.01056 19.1966C4.76062 18.8722 4.64798 18.4628 4.69688 18.0562L4.96667 15.6318L4.99219 14.9354C4.68653 14.9962 4.36968 14.9641 4.08236 14.8434C3.79504 14.7227 3.55038 14.5189 3.37982 14.258C3.20925 13.9972 3.12058 13.6913 3.1252 13.3797C3.12982 13.0681 3.22752 12.765 3.40573 12.5094C3.45677 12.4354 3.51823 12.3448 3.58959 12.2385L3.60417 12.2172C3.80834 11.9125 4.0849 11.501 4.35834 11.1651C4.55313 10.9255 4.80781 10.6432 5.11459 10.4109V10.4114ZM6.54688 10.9375C6.225 10.9375 5.95104 11.0849 5.74375 11.2416C5.53229 11.4021 5.33854 11.6114 5.16719 11.8219C4.92865 12.1156 4.67813 12.487 4.46823 12.7995L4.46094 12.8099C4.38854 12.9177 4.31979 13.0203 4.26094 13.1052C4.21926 13.1611 4.18926 13.2249 4.1727 13.2927C4.15615 13.3605 4.15338 13.4309 4.16457 13.4998C4.17575 13.5686 4.20066 13.6346 4.23782 13.6936C4.27497 13.7527 4.32362 13.8037 4.38086 13.8436C4.4381 13.8835 4.50278 13.9115 4.57105 13.9259C4.63932 13.9403 4.70979 13.9408 4.77827 13.9275C4.84676 13.9141 4.91187 13.8872 4.96973 13.8482C5.02759 13.8092 5.07703 13.759 5.11511 13.7005L6.13386 12.237L6.00677 15.7083L5.73282 18.1719C5.71881 18.3062 5.75756 18.4408 5.84089 18.5471C5.92423 18.6535 6.04562 18.7233 6.17945 18.7418C6.31327 18.7603 6.44906 18.7261 6.55814 18.6464C6.66722 18.5667 6.74106 18.4477 6.76407 18.3146L7.28177 15.2094L7.81615 15.0906L8.34532 15.2146L8.86198 18.3146C8.88481 18.4479 8.95863 18.5672 9.06782 18.647C9.17701 18.7269 9.31299 18.7612 9.447 18.7426C9.581 18.724 9.70251 18.6539 9.78579 18.5473C9.86908 18.4407 9.90761 18.3059 9.89323 18.1713L9.54584 15.0463C9.54296 15.021 9.53826 14.996 9.53177 14.9713L9.51511 14.9062V12.1896L9.60521 12.2276L10.4698 13.5349L10.5771 13.6953C10.6546 13.8096 10.7744 13.8884 10.9101 13.9144C11.0458 13.9404 11.1862 13.9114 11.3005 13.8338C11.4148 13.7563 11.4936 13.6365 11.5196 13.5008C11.5456 13.3651 11.5166 13.2247 11.4391 13.1104L11.338 12.9583L9.60521 12.2276L9.60469 12.2265L11.337 12.9568L11.3349 12.9541C11.1635 12.6937 10.8896 12.2781 10.6016 11.9208C10.4198 11.6958 10.212 11.4661 9.99219 11.2885C9.78698 11.1229 9.49323 10.9375 9.14896 10.9375H6.54688ZM15.0281 11.1963C15.2292 11.0427 15.4979 10.8958 15.8151 10.8958H18.3302C18.6698 10.8958 18.9578 11.0807 19.1563 11.2427C19.3698 11.4172 19.5714 11.6422 19.7469 11.8625C20.026 12.212 20.2911 12.6187 20.4568 12.8729L20.4583 12.8755C20.4958 12.9328 20.5302 12.9854 20.5573 13.0255C20.6342 13.1395 20.6626 13.2793 20.6364 13.4142C20.6102 13.5492 20.5314 13.6682 20.4175 13.745C20.3035 13.8219 20.1637 13.8504 20.0287 13.8241C19.8938 13.7979 19.7748 13.7191 19.6979 13.6052C19.6319 13.5081 19.5338 13.4374 19.4208 13.4054C19.3078 13.3734 19.1872 13.3822 19.0801 13.4302C18.9729 13.4782 18.8861 13.5624 18.8348 13.668C18.7835 13.7736 18.771 13.8939 18.7995 14.0078C19.0375 14.9536 19.3203 15.9271 19.4917 16.5005C17.7599 16.862 16.5661 16.8536 14.6635 16.4911L14.6641 16.4896C14.926 15.6516 15.165 14.8067 15.3807 13.9557C15.4089 13.842 15.3962 13.7219 15.3449 13.6166C15.2936 13.5113 15.2069 13.4273 15.0999 13.3793C14.993 13.3314 14.8727 13.3225 14.7599 13.3543C14.6471 13.3861 14.549 13.4564 14.4828 13.5531L14.4453 13.6083C14.3669 13.7205 14.2473 13.7971 14.1125 13.8214C13.9778 13.8457 13.839 13.8157 13.7263 13.7379C13.6137 13.6602 13.5363 13.5411 13.5112 13.4065C13.486 13.272 13.5152 13.1329 13.5922 13.0198C13.649 12.9375 13.7156 12.8375 13.7854 12.7323L13.788 12.7286C13.9917 12.4219 14.2359 12.0552 14.4688 11.7656C14.6344 11.5594 14.8224 11.3541 15.0281 11.1963Z" fill="#005A9B"/>
<path fill-rule="evenodd" clip-rule="evenodd" d="M17.1875 9.37498C17.74 9.37498 18.2699 9.15549 18.6606 8.76478C19.0513 8.37408 19.2708 7.84418 19.2708 7.29165C19.2708 6.73911 19.0513 6.20921 18.6606 5.81851C18.2699 5.42781 17.74 5.20831 17.1875 5.20831C16.635 5.20831 16.1051 5.42781 15.7144 5.81851C15.3237 6.20921 15.1042 6.73911 15.1042 7.29165C15.1042 7.84418 15.3237 8.37408 15.7144 8.76478C16.1051 9.15549 16.635 9.37498 17.1875 9.37498ZM17.1875 8.33331C17.4638 8.33331 17.7287 8.22357 17.9241 8.02822C18.1194 7.83287 18.2292 7.56791 18.2292 7.29165C18.2292 7.01538 18.1194 6.75043 17.9241 6.55508C17.7287 6.35973 17.4638 6.24998 17.1875 6.24998C16.9112 6.24998 16.6463 6.35973 16.4509 6.55508C16.2556 6.75043 16.1458 7.01538 16.1458 7.29165C16.1458 7.56791 16.2556 7.83287 16.4509 8.02822C16.6463 8.22357 16.9112 8.33331 17.1875 8.33331Z" fill="#005A9B"/>
<path d="M15.5208 19.7849C15.3333 19.7596 15.1614 19.6672 15.0368 19.5248C14.9123 19.3824 14.8437 19.1996 14.8438 19.0104V18.3666C15.4171 18.4406 15.9936 18.4882 16.5714 18.5093L16.3786 19.2161C16.3289 19.3987 16.2145 19.5569 16.0568 19.6615C15.8992 19.7661 15.7089 19.81 15.5214 19.7849H15.5208Z" fill="#005A9B"/>
<path d="M17.9964 19.2161L17.8026 18.5068C18.3807 18.4831 18.9575 18.4339 19.5313 18.3594V19.0104C19.5312 19.1996 19.4625 19.3824 19.3379 19.5248C19.2134 19.6672 19.0413 19.7595 18.8538 19.7846C18.6663 19.8098 18.476 19.766 18.3183 19.6614C18.1606 19.5569 18.0462 19.3987 17.9964 19.2161Z" fill="#005A9B"/>
</svg>
