<svg width="25" height="25" viewBox="0 0 25 25" fill="none" xmlns="http://www.w3.org/2000/svg">
<g clip-path="url(#clip0_1312_1082)">
<line x1="21.6066" y1="11.1066" x2="21.6066" y2="17.1066" stroke="#005A9B"/>
<path d="M7.10657 18.5183H6.60657V18.774L6.8139 18.9237L7.10657 18.5183ZM18.1066 18.5183L18.3992 18.9237L18.6066 18.774V18.5183H18.1066ZM12.6066 19.6066C11.0367 19.6066 9.72702 19.2286 8.80974 18.8502C8.35157 18.6612 7.99329 18.4729 7.75194 18.3335C7.63135 18.2639 7.5402 18.2066 7.48064 18.1677C7.45087 18.1483 7.42902 18.1336 7.41536 18.1242C7.40853 18.1195 7.40374 18.1161 7.40104 18.1142C7.3997 18.1133 7.39887 18.1127 7.39856 18.1125C7.39841 18.1123 7.39839 18.1123 7.3985 18.1124C7.39856 18.1124 7.39865 18.1125 7.39877 18.1126C7.39883 18.1126 7.39895 18.1127 7.39898 18.1127C7.3991 18.1128 7.39923 18.1129 7.10657 18.5183C6.8139 18.9237 6.81405 18.9238 6.81421 18.924C6.81427 18.924 6.81444 18.9241 6.81457 18.9242C6.81482 18.9244 6.81511 18.9246 6.81544 18.9248C6.81608 18.9253 6.81687 18.9259 6.81779 18.9265C6.81962 18.9278 6.822 18.9295 6.82491 18.9316C6.83074 18.9357 6.83871 18.9412 6.8488 18.9482C6.86898 18.9621 6.89761 18.9814 6.93444 19.0054C7.00809 19.0534 7.1146 19.1202 7.25182 19.1995C7.5261 19.3579 7.92407 19.5666 8.42839 19.7747C9.43611 20.1904 10.8765 20.6066 12.6066 20.6066V19.6066ZM7.60657 18.5183L7.60657 11.1066H6.60657L6.60657 18.5183H7.60657ZM17.6066 11.1066V18.5183H18.6066V11.1066H17.6066ZM18.1066 18.5183C17.8139 18.1129 17.814 18.1128 17.8142 18.1127C17.8142 18.1127 17.8143 18.1126 17.8144 18.1126C17.8145 18.1125 17.8146 18.1124 17.8146 18.1124C17.8147 18.1123 17.8147 18.1123 17.8146 18.1125C17.8143 18.1127 17.8134 18.1133 17.8121 18.1142C17.8094 18.1161 17.8046 18.1195 17.7978 18.1242C17.7841 18.1336 17.7623 18.1483 17.7325 18.1677C17.6729 18.2066 17.5818 18.2639 17.4612 18.3335C17.2198 18.4729 16.8616 18.6612 16.4034 18.8502C15.4861 19.2286 14.1765 19.6066 12.6066 19.6066V20.6066C14.3367 20.6066 15.777 20.1904 16.7847 19.7747C17.2891 19.5666 17.687 19.3579 17.9613 19.1995C18.0985 19.1202 18.205 19.0534 18.2787 19.0054C18.3155 18.9814 18.3442 18.9621 18.3643 18.9482C18.3744 18.9412 18.3824 18.9357 18.3882 18.9316C18.3911 18.9295 18.3935 18.9278 18.3953 18.9265C18.3963 18.9259 18.3971 18.9253 18.3977 18.9248C18.398 18.9246 18.3983 18.9244 18.3986 18.9242C18.3987 18.9241 18.3989 18.924 18.3989 18.924C18.3991 18.9238 18.3992 18.9237 18.1066 18.5183Z" fill="#005A9B"/>
<path d="M12.6066 16.0321L3.0493 10.6257L12.6066 5.66979L22.1639 10.6257L12.6066 16.0321Z" fill="#F8F9FA" stroke="#005A9B"/>
</g>
<defs>
<clipPath id="clip0_1312_1082">
<rect width="25" height="25" fill="white"/>
</clipPath>
</defs>
</svg>
