<svg width="25" height="25" viewBox="0 0 25 25" fill="none" xmlns="http://www.w3.org/2000/svg">
<path d="M2.5 6.25C2.5 5.58696 2.76339 4.95107 3.23223 4.48223C3.70107 4.01339 4.33696 3.75 5 3.75H15C15.663 3.75 16.2989 4.01339 16.7678 4.48223C17.2366 4.95107 17.5 5.58696 17.5 6.25V7.3675L21.5687 5.07875C21.6638 5.02534 21.7711 4.9977 21.8801 4.9986C21.9891 4.99949 22.096 5.02888 22.1901 5.08385C22.2843 5.13881 22.3624 5.21744 22.4168 5.31193C22.4711 5.40643 22.4998 5.51349 22.5 5.6225V14.375C22.4999 14.4842 22.4713 14.5915 22.4168 14.6861C22.3624 14.7808 22.2842 14.8595 22.1898 14.9145C22.0955 14.9695 21.9884 14.9989 21.8792 14.9996C21.77 15.0004 21.6626 14.9725 21.5675 14.9188L17.5 12.625V13.75C17.5 14.413 17.2366 15.0489 16.7678 15.5178C16.2989 15.9866 15.663 16.25 15 16.25H12.5V17.5C12.5 18.8261 11.9732 20.0979 11.0355 21.0355C10.0979 21.9732 8.82608 22.5 7.5 22.5H4.375C4.20924 22.5 4.05027 22.4342 3.93306 22.3169C3.81585 22.1997 3.75 22.0408 3.75 21.875V19.375C3.75 19.2092 3.81585 19.0503 3.93306 18.9331C4.05027 18.8158 4.20924 18.75 4.375 18.75H6.875C7.37228 18.75 7.84919 18.5525 8.20083 18.2008C8.55246 17.8492 8.75 17.3723 8.75 16.875V16.25H5C4.33696 16.25 3.70107 15.9866 3.23223 15.5178C2.76339 15.0489 2.5 14.413 2.5 13.75V6.25ZM10 16.25V16.875C10 17.7038 9.67076 18.4987 9.08471 19.0847C8.49866 19.6708 7.7038 20 6.875 20H5V21.25H7.5C8.49456 21.25 9.44839 20.8549 10.1517 20.1517C10.8549 19.4484 11.25 18.4946 11.25 17.5V16.25H10ZM5 15H15C15.3315 15 15.6495 14.8683 15.8839 14.6339C16.1183 14.3995 16.25 14.0815 16.25 13.75V6.25C16.25 5.91848 16.1183 5.60054 15.8839 5.36612C15.6495 5.1317 15.3315 5 15 5H5C4.66848 5 4.35054 5.1317 4.11612 5.36612C3.8817 5.60054 3.75 5.91848 3.75 6.25V13.75C3.75 14.0815 3.8817 14.3995 4.11612 14.6339C4.35054 14.8683 4.66848 15 5 15ZM17.5063 8.8V11.1925L21.25 13.305V6.6925L17.5063 8.79875V8.8Z" fill="#005A9B"/>
</svg>
