<svg width="25" height="25" viewBox="0 0 25 25" fill="none" xmlns="http://www.w3.org/2000/svg">
<circle cx="12" cy="13" r="9.5" stroke="#005A9B"/>
<path d="M11.5195 13.9941V12.9941H10.5195V13.9941H11.5195ZM11.5195 17V18H12.5195V17H11.5195ZM9.76172 17H8.76172V18H9.76172V17ZM9.76172 8.46875V7.46875H8.76172V8.46875H9.76172ZM14.7773 8.82031L14.3418 9.72048L14.3446 9.72184L14.7773 8.82031ZM15.9023 9.82227L15.0462 10.339L15.0483 10.3425L15.9023 9.82227ZM15.4336 13.2734L16.0779 14.0382L16.0784 14.0378L15.4336 13.2734ZM11.5195 12.5703H10.5195V13.5703H11.5195V12.5703ZM14.1504 12.2422L13.486 11.4948L13.4801 11.5001L14.1504 12.2422ZM13.1309 9.89258L13.1489 8.89274L13.1399 8.89258H13.1309V9.89258ZM11.5195 9.89258V8.89258H10.5195V9.89258H11.5195ZM10.5195 13.9941V17H12.5195V13.9941H10.5195ZM11.5195 16H9.76172V18H11.5195V16ZM10.7617 17V8.46875H8.76172V17H10.7617ZM9.76172 9.46875H13.0898V7.46875H9.76172V9.46875ZM13.0898 9.46875C13.6081 9.46875 14.0167 9.56317 14.3418 9.72047L15.2129 7.92015C14.5693 7.60871 13.8529 7.46875 13.0898 7.46875V9.46875ZM14.3446 9.72184C14.6701 9.87806 14.8922 10.0839 15.0462 10.339L16.7585 9.3055C16.389 8.69343 15.8612 8.23132 15.2101 7.91879L14.3446 9.72184ZM15.0483 10.3425C15.2056 10.6008 15.2949 10.9077 15.2949 11.293H17.2949C17.2949 10.5767 17.1225 9.90315 16.7564 9.30207L15.0483 10.3425ZM15.2949 11.293C15.2949 11.8717 15.1107 12.2376 14.7888 12.5091L16.0784 14.0378C16.905 13.3406 17.2949 12.3862 17.2949 11.293H15.2949ZM14.7893 12.5087C14.4547 12.7906 13.9207 12.9941 13.0605 12.9941V14.9941C14.2238 14.9941 15.2719 14.7172 16.0779 14.0382L14.7893 12.5087ZM13.0605 12.9941H11.5195V14.9941H13.0605V12.9941ZM11.5195 13.5703H13.0898V11.5703H11.5195V13.5703ZM13.0898 13.5703C13.698 13.5703 14.3297 13.4278 14.8207 12.9843L13.4801 11.5001C13.4791 11.501 13.4751 11.5045 13.4654 11.5098C13.4553 11.5154 13.4372 11.5239 13.408 11.533C13.3479 11.5516 13.2465 11.5703 13.0898 11.5703V13.5703ZM14.8148 12.9896C15.3229 12.5379 15.5195 11.9244 15.5195 11.3047H13.5195C13.5195 11.408 13.5038 11.4595 13.4968 11.4774C13.4916 11.4905 13.4893 11.4919 13.486 11.4948L14.8148 12.9896ZM15.5195 11.3047C15.5195 10.6771 15.3277 10.0761 14.8737 9.60054L13.427 10.9815C13.4652 11.0215 13.5195 11.0963 13.5195 11.3047H15.5195ZM14.8737 9.60054C14.4046 9.10905 13.7877 8.90425 13.1489 8.89274L13.1128 10.8924C13.3412 10.8965 13.404 10.9574 13.427 10.9815L14.8737 9.60054ZM13.1309 8.89258H11.5195V10.8926H13.1309V8.89258ZM10.5195 9.89258V12.5703H12.5195V9.89258H10.5195Z" fill="#005A9B"/>
</svg>
