<svg width="27" height="30" viewBox="0 0 27 30" fill="none" xmlns="http://www.w3.org/2000/svg">
<g clip-path="url(#clip0_1320_44362)">
<path d="M25.5469 28.125H24.375V1.40625C24.375 0.62959 23.7454 0 22.9688 0H3.28125C2.50459 0 1.875 0.62959 1.875 1.40625V28.125H0.703125C0.314824 28.125 0 28.4398 0 28.8281V30H26.25V28.8281C26.25 28.4398 25.9352 28.125 25.5469 28.125ZM7.5 4.45312C7.5 4.06482 7.81482 3.75 8.20312 3.75H10.5469C10.9352 3.75 11.25 4.06482 11.25 4.45312V6.79688C11.25 7.18518 10.9352 7.5 10.5469 7.5H8.20312C7.81482 7.5 7.5 7.18518 7.5 6.79688V4.45312ZM7.5 10.0781C7.5 9.68982 7.81482 9.375 8.20312 9.375H10.5469C10.9352 9.375 11.25 9.68982 11.25 10.0781V12.4219C11.25 12.8102 10.9352 13.125 10.5469 13.125H8.20312C7.81482 13.125 7.5 12.8102 7.5 12.4219V10.0781ZM10.5469 18.75H8.20312C7.81482 18.75 7.5 18.4352 7.5 18.0469V15.7031C7.5 15.3148 7.81482 15 8.20312 15H10.5469C10.9352 15 11.25 15.3148 11.25 15.7031V18.0469C11.25 18.4352 10.9352 18.75 10.5469 18.75ZM15 28.125H11.25V23.2031C11.25 22.8148 11.5648 22.5 11.9531 22.5H14.2969C14.6852 22.5 15 22.8148 15 23.2031V28.125ZM18.75 18.0469C18.75 18.4352 18.4352 18.75 18.0469 18.75H15.7031C15.3148 18.75 15 18.4352 15 18.0469V15.7031C15 15.3148 15.3148 15 15.7031 15H18.0469C18.4352 15 18.75 15.3148 18.75 15.7031V18.0469ZM18.75 12.4219C18.75 12.8102 18.4352 13.125 18.0469 13.125H15.7031C15.3148 13.125 15 12.8102 15 12.4219V10.0781C15 9.68982 15.3148 9.375 15.7031 9.375H18.0469C18.4352 9.375 18.75 9.68982 18.75 10.0781V12.4219ZM18.75 6.79688C18.75 7.18518 18.4352 7.5 18.0469 7.5H15.7031C15.3148 7.5 15 7.18518 15 6.79688V4.45312C15 4.06482 15.3148 3.75 15.7031 3.75H18.0469C18.4352 3.75 18.75 4.06482 18.75 4.45312V6.79688Z" fill="white"/>
</g>
<defs>
<clipPath id="clip0_1320_44362">
<rect width="26.25" height="30" fill="white"/>
</clipPath>
</defs>
</svg>
