<svg width="30" height="30" viewBox="0 0 30 30" fill="none" xmlns="http://www.w3.org/2000/svg">
<path d="M15.6871 14.997L29.8584 0.825701C30.0472 0.636786 30.0472 0.330556 29.8584 0.141641C29.6694 -0.0472136 29.3632 -0.0472136 29.1743 0.141641L15.003 14.3129L0.831746 0.141641C0.639566 -0.0439481 0.333335 -0.0386266 0.147686 0.153554C-0.0333679 0.341017 -0.0333679 0.638238 0.147686 0.825701L14.319 14.997L0.147686 29.1683C-0.0444948 29.3539 -0.0498163 29.6601 0.135833 29.8523C0.321482 30.0445 0.627713 30.0498 0.819894 29.8642C0.823945 29.8603 0.827876 29.8563 0.831746 29.8523L15.003 15.681L29.1743 29.8523C29.3665 30.038 29.6727 30.0326 29.8584 29.8405C30.0395 29.653 30.0395 29.3557 29.8584 29.1683L15.6871 14.997Z" fill="black"/>
</svg>
