<svg width="60" height="60" viewBox="0 0 60 60" fill="none" xmlns="http://www.w3.org/2000/svg">
<path d="M30.3806 18.38L29.786 18.6381C29.7779 18.6865 29.7702 18.7482 29.7633 18.8206C29.7633 18.8207 29.7633 18.8207 29.7633 18.8208C29.7561 18.8956 29.7497 18.9819 29.7444 19.0771C29.7438 19.0861 29.7434 19.0951 29.7429 19.1043C29.7427 19.1073 29.7425 19.1104 29.7424 19.1135C29.7318 19.3177 29.7275 19.5259 29.726 19.6856C29.7252 19.7647 29.7252 19.8305 29.7253 19.876L29.7256 19.9278L29.7257 19.9406L29.7257 19.9434L29.7257 19.9437L30.5468 18.9337C30.5247 18.84 30.5006 18.7486 30.4745 18.6604C30.4648 18.6277 30.4546 18.5945 30.4438 18.561C30.4247 18.5014 30.4037 18.4409 30.3806 18.38ZM30.3806 18.38C30.3806 18.38 30.3806 18.38 30.3806 18.38L29.7922 18.6045C29.7946 18.5927 29.796 18.5873 29.7961 18.5874C29.7961 18.5874 29.7944 18.5938 29.7905 18.6051L29.4476 18.736L29.4567 18.7596M30.3806 18.38L29.561 19.1114M29.561 19.1114L29.5594 19.0966C29.5544 19.0491 29.5447 19.0023 29.5305 18.9568M29.561 19.1114C29.5484 19.0609 29.5352 19.0117 29.5214 18.964C29.5245 18.9616 29.5275 18.9592 29.5305 18.9568M29.561 19.1114L29.4475 18.7396M29.5305 18.9568C29.5654 18.9286 29.5947 18.9009 29.6182 18.8761C29.6183 18.876 29.6184 18.876 29.6184 18.8759C29.6187 18.8756 29.619 18.8753 29.6193 18.875C29.7194 18.7692 29.7636 18.6707 29.7754 18.6435C29.7756 18.6432 29.7757 18.6428 29.7759 18.6425L29.4646 18.7776C29.462 18.7715 29.4593 18.7656 29.4567 18.7596M29.5305 18.9568C29.5261 18.9428 29.5212 18.9289 29.516 18.9151L29.516 18.915L29.4567 18.7596M29.4567 18.7596C29.4536 18.7529 29.4506 18.7462 29.4475 18.7396M29.4475 18.7396C29.3548 18.4932 29.2412 18.3089 29.1079 18.2223C29.0884 18.2096 29.0686 18.1991 29.0483 18.1907C29.0113 18.1754 28.9729 18.1674 28.9331 18.1674C28.885 18.1674 28.848 18.2465 28.8196 18.3713M29.4475 18.7396L28.8196 18.3713M28.6568 18.3665L28.8196 18.3713M28.6568 18.3665C28.6609 18.3665 28.6651 18.3665 28.6692 18.3665V17.3665L28.64 18.366L28.6568 18.3665ZM28.6568 18.3665C28.4569 18.3686 28.3126 18.4205 28.2277 18.4739C28.1468 18.5248 28.1297 18.5676 28.1256 18.5814C28.126 18.58 28.1264 18.5786 28.1267 18.5772L28.8196 18.3713M28.7258 19.9555C28.7258 20.159 28.7324 20.3858 28.7456 20.6256C28.793 21.4882 28.9263 22.5181 29.1475 23.2278C29.1931 23.1459 29.2376 23.0601 29.2804 22.9702L28.7258 19.9555ZM28.7258 19.9555H28.696M28.7258 19.9555C28.7258 19.9555 28.7211 19.5597 28.7399 19.1405C28.6674 19.1197 28.6064 19.0894 28.5596 19.0585C28.5204 19.0327 28.4937 19.0083 28.4778 18.9922C28.4619 18.976 28.454 18.9651 28.4527 18.9633C28.4526 18.9631 28.4526 18.9632 28.4528 18.9634C28.4542 18.9656 28.4668 18.9852 28.4865 19.03C28.5077 19.0781 28.5318 19.1435 28.5566 19.2276C28.6154 19.4265 28.6635 19.6781 28.696 19.9555M28.696 19.9555H27.9738H28.696ZM37.1762 32.8017L37.0197 33.7337C36.4642 33.5179 35.903 33.2685 35.3594 32.991C35.9628 32.9071 36.5688 32.844 37.1762 32.8017ZM23.7528 36.3312C23.6303 36.533 23.5099 36.7277 23.3916 36.9153L23.1005 36.6772C23.1187 36.6675 23.1362 36.6582 23.1529 36.6493C23.2398 36.6031 23.2958 36.5736 23.3197 36.5609C23.3293 36.5559 23.3337 36.5535 23.3329 36.5539L23.344 36.5484L23.3549 36.5426L23.7528 36.3312ZM25.8483 34.4663C25.569 34.5519 25.2904 34.6395 25.0124 34.7293C25.1498 34.4827 25.29 34.2279 25.4328 33.9644L25.7925 34.166L25.8483 34.4663ZM26.4733 31.9855L27.0814 32.3072C26.9652 32.5262 26.8499 32.7414 26.7357 32.9527L26.4733 31.9855Z" fill="black" stroke="#005A9B" stroke-width="2"/>
<path d="M1 11.0838C1 9.38065 2.38065 8 4.08377 8H24.5761C25.7608 8 26.8655 8.5976 27.5138 9.58913C28.5315 11.1457 30.2658 12.0838 32.1255 12.0838H55C57.2091 12.0838 59 13.8746 59 16.0838V47.5497C59 49.7589 57.2091 51.5497 55 51.5497H5C2.79086 51.5497 1 49.7589 1 47.5497V11.0838Z" stroke="#005A9B" stroke-width="2"/>
</svg>
