<svg width="24" height="31" viewBox="0 0 24 31" fill="none" xmlns="http://www.w3.org/2000/svg">
    <mask id="path-1-inside-1_1290_9988" fill="white">
        <path fill-rule="evenodd" clip-rule="evenodd" d="M3 0C1.34315 0 0 1.34315 0 3V30.9385L12 25L24 30.9385V3C24 1.34315 22.6569 0 21 0H3Z"/>
    </mask>
    <path fill="#005A9B" fill-rule="evenodd" clip-rule="evenodd" d="M3 0C1.34315 0 0 1.34315 0 3V30.9385L12 25L24 30.9385V3C24 1.34315 22.6569 0 21 0H3Z"/>
    <path d="M0 30.9385H-2V34.1597L0.887065 32.731L0 30.9385ZM12 25L12.8871 23.2075L12 22.7685L11.1129 23.2075L12 25ZM24 30.9385L23.1129 32.731L26 34.1597V30.9385H24ZM2 3C2 2.44772 2.44772 2 3 2V-2C0.238576 -2 -2 0.238578 -2 3H2ZM2 30.9385V3H-2V30.9385H2ZM0.887065 32.731L12.8871 26.7925L11.1129 23.2075L-0.887065 29.1459L0.887065 32.731ZM11.1129 26.7925L23.1129 32.731L24.8871 29.1459L12.8871 23.2075L11.1129 26.7925ZM22 3V30.9385H26V3H22ZM21 2C21.5523 2 22 2.44772 22 3H26C26 0.238576 23.7614 -2 21 -2V2ZM3 2H21V-2H3V2Z" fill="#005A9B" mask="url(#path-1-inside-1_1290_9988)"/>
</svg>