<svg width="40" height="40" viewBox="0 0 40 40" fill="none" xmlns="http://www.w3.org/2000/svg">
<mask id="path-1-inside-1_1312_1341" fill="white">
<path fill-rule="evenodd" clip-rule="evenodd" d="M11 5C9.34315 5 8 6.34315 8 8V35.9385L20 30L32 35.9385V8C32 6.34315 30.6569 5 29 5H11Z"/>
</mask>
<path d="M8 35.9385H6V39.1597L8.88707 37.731L8 35.9385ZM20 30L20.8871 28.2075L20 27.7685L19.1129 28.2075L20 30ZM32 35.9385L31.1129 37.731L34 39.1597V35.9385H32ZM10 8C10 7.44772 10.4477 7 11 7V3C8.23858 3 6 5.23858 6 8H10ZM10 35.9385V8H6V35.9385H10ZM8.88707 37.731L20.8871 31.7925L19.1129 28.2075L7.11293 34.1459L8.88707 37.731ZM19.1129 31.7925L31.1129 37.731L32.8871 34.1459L20.8871 28.2075L19.1129 31.7925ZM30 8V35.9385H34V8H30ZM29 7C29.5523 7 30 7.44772 30 8H34C34 5.23858 31.7614 3 29 3V7ZM11 7H29V3H11V7Z" fill="#DAE2E8" mask="url(#path-1-inside-1_1312_1341)"/>
</svg>
