<?xml version="1.0" encoding="utf-8"?>
<!-- Generator: Adobe Illustrator 16.2.0, SVG Export Plug-In . SVG Version: 6.00 Build 0)  -->
<!DOCTYPE svg PUBLIC "-//W3C//DTD SVG 1.1//EN" "http://www.w3.org/Graphics/SVG/1.1/DTD/svg11.dtd">
<svg version="1.1" id="Слой_1" xmlns="http://www.w3.org/2000/svg" xmlns:xlink="http://www.w3.org/1999/xlink" x="0px" y="0px"
	 width="500px" height="500px" viewBox="0 0 500 500" enable-background="new 0 0 500 500" xml:space="preserve">
<g>
	<g>
		<path fill="#E8F0F7" d="M491.79,479.079c0,6.942-5.647,12.59-12.587,12.59H21.318c-6.951,0-12.589-5.647-12.589-12.59V21.196
			c0-6.961,5.638-12.587,12.589-12.587h457.885c6.939,0,12.587,5.626,12.587,12.587V479.079z"/>
	</g>
	<g>
		<rect x="91.117" y="8.608" fill="#808080" width="39.337" height="483.061"/>
	</g>
	<g>
		<rect x="379.909" y="100.895" fill="#999999" stroke="#999999" stroke-miterlimit="10" width="39.33" height="390.774"/>
	</g>
	<g>
		<rect x="8.729" y="325.902" fill="#999999" width="483.061" height="36.186"/>
	</g>
	<g>
		<rect x="8.729" y="90.175" fill="#808080" width="483.061" height="36.206"/>
	</g>
	<g>
		<rect x="110.791" y="177.985" fill="#808080" width="146.833" height="18.895"/>
	</g>
	<g>
		<rect x="307.174" y="345.537" fill="#999999" width="18.893" height="146.81"/>
	</g>
	<g>
		<path fill="#BCCAD8" d="M149.574,308.223c-0.74,0-1.324-0.596-1.324-1.334v-61.32c0-0.739,0.583-1.314,1.324-1.314h34.603
			c0.739,0,1.344,0.575,1.344,1.314v61.32c0,0.738-0.605,1.334-1.344,1.334H149.574z"/>
	</g>
	<g>
		<path fill="#BCCAD8" d="M206.365,308.223c-0.73,0-1.336-0.596-1.336-1.334v-61.32c0-0.739,0.606-1.314,1.336-1.314h34.602
			c0.74,0,1.335,0.575,1.335,1.314v61.32c0,0.738-0.595,1.334-1.335,1.334H206.365z"/>
	</g>
	<g>
		<path fill="#BCCAD8" d="M263.157,308.223c-0.729,0-1.328-0.596-1.328-1.334v-61.32c0-0.739,0.599-1.314,1.328-1.314h34.601
			c0.741,0,1.337,0.575,1.337,1.314v61.32c0,0.738-0.596,1.334-1.337,1.334H263.157z"/>
	</g>
	<g>
		<path fill="#BCCAD8" d="M149.543,437.946c-0.721,0-1.293-0.574-1.293-1.293v-60.047c0-0.717,0.572-1.313,1.293-1.313h33.873
			c0.729,0,1.313,0.597,1.313,1.313v60.047c0,0.719-0.584,1.293-1.313,1.293H149.543z"/>
	</g>
	<g>
		<g>
			<path fill="#BCCAD8" d="M30.385,435.503c-0.575,0-1.058-0.47-1.058-1.069v-49.08c0-0.575,0.483-1.066,1.058-1.066h27.702
				c0.597,0,1.067,0.491,1.067,1.066v49.08c0,0.6-0.471,1.069-1.067,1.069H30.385z"/>
		</g>
		<g>
			<path fill="#BCCAD8" d="M47.902,435.503c-0.576,0-1.049-0.47-1.049-1.069v-49.08c0-0.575,0.473-1.066,1.049-1.066h27.71
				c0.597,0,1.069,0.491,1.069,1.066v49.08c0,0.6-0.472,1.069-1.069,1.069H47.902z"/>
		</g>
	</g>
	<g>
		<path fill="#BCCAD8" d="M205.154,437.946c-0.73,0-1.306-0.574-1.306-1.293v-60.047c0-0.717,0.575-1.313,1.306-1.313h33.873
			c0.729,0,1.313,0.597,1.313,1.313v60.047c0,0.719-0.584,1.293-1.313,1.293H205.154z"/>
	</g>
	<g>
		<path fill="#BCCAD8" d="M260.752,437.946c-0.706,0-1.304-0.574-1.304-1.293v-60.047c0-0.717,0.598-1.313,1.304-1.313h33.874
			c0.729,0,1.314,0.597,1.314,1.313v60.047c0,0.719-0.585,1.293-1.314,1.293H260.752z"/>
	</g>
	<g>
		<path fill="#BCCAD8" d="M191.876,163.406c0,0.492-0.401,0.881-0.894,0.881h-41.081c-0.493,0-0.894-0.39-0.894-0.881v-23.165
			c0-0.513,0.401-0.903,0.894-0.903h41.081c0.492,0,0.894,0.39,0.894,0.903V163.406z"/>
	</g>
	<g>
		<path fill="#BCCAD8" d="M172.688,37.605c0.472,0,0.87,0.39,0.87,0.883v41.09c0,0.494-0.398,0.885-0.87,0.885H149.5
			c-0.502,0-0.892-0.391-0.892-0.885v-41.09c0-0.493,0.389-0.883,0.892-0.883H172.688z"/>
	</g>
	<g>
		<path fill="#BCCAD8" d="M220.279,37.605c0.471,0,0.87,0.39,0.87,0.883v41.09c0,0.494-0.399,0.885-0.87,0.885h-23.197
			c-0.492,0-0.894-0.391-0.894-0.885v-41.09c0-0.493,0.402-0.883,0.894-0.883H220.279z"/>
	</g>
	<g>
		<path fill="#BCCAD8" d="M267.869,37.605c0.482,0,0.883,0.39,0.883,0.883v41.09c0,0.494-0.4,0.885-0.883,0.885h-23.184
			c-0.504,0-0.894-0.391-0.894-0.885v-41.09c0-0.493,0.39-0.883,0.894-0.883H267.869z"/>
	</g>
	<g>
		<path fill="#BCCAD8" d="M315.461,37.605c0.48,0,0.872,0.39,0.872,0.883v41.09c0,0.494-0.392,0.885-0.872,0.885h-23.185
			c-0.493,0-0.894-0.391-0.894-0.885v-41.09c0-0.493,0.4-0.883,0.894-0.883H315.461z"/>
	</g>
	<g>
		<path fill="#BCCAD8" d="M363.053,37.605c0.482,0,0.872,0.39,0.872,0.883v41.09c0,0.494-0.39,0.885-0.872,0.885h-23.185
			c-0.493,0-0.896-0.391-0.896-0.885v-41.09c0-0.493,0.402-0.883,0.896-0.883H363.053z"/>
	</g>
	<g>
		<path fill="#BCCAD8" d="M410.643,37.605c0.484,0,0.874,0.39,0.874,0.883v41.09c0,0.494-0.39,0.885-0.874,0.885h-23.184
			c-0.493,0-0.894-0.391-0.894-0.885v-41.09c0-0.493,0.4-0.883,0.894-0.883H410.643z"/>
	</g>
	<g>
		<path fill="#BCCAD8" d="M458.235,37.605c0.482,0,0.881,0.39,0.881,0.883v41.09c0,0.494-0.398,0.885-0.881,0.885H435.06
			c-0.502,0-0.893-0.391-0.893-0.885v-41.09c0-0.493,0.391-0.883,0.893-0.883H458.235z"/>
	</g>
	<g>
		<path fill="#BCCAD8" d="M429.629,284.689c0-0.492,0.388-0.882,0.894-0.882h41.071c0.503,0,0.893,0.39,0.893,0.882v23.166
			c0,0.51-0.39,0.902-0.893,0.902h-41.071c-0.506,0-0.894-0.393-0.894-0.902V284.689z"/>
	</g>
	<g>
		<path fill="#BCCAD8" d="M429.629,238.547c0-0.514,0.388-0.883,0.894-0.883h41.071c0.503,0,0.893,0.369,0.893,0.883v23.163
			c0,0.514-0.39,0.902-0.893,0.902h-41.071c-0.506,0-0.894-0.389-0.894-0.902V238.547z"/>
	</g>
	<g>
		<path fill="#BCCAD8" d="M429.629,192.383c0-0.472,0.388-0.883,0.894-0.883h41.071c0.503,0,0.893,0.411,0.893,0.883v23.184
			c0,0.514-0.39,0.882-0.893,0.882h-41.071c-0.506,0-0.894-0.368-0.894-0.882V192.383z"/>
	</g>
	<g>
		<path fill="#BCCAD8" d="M429.629,146.239c0-0.474,0.388-0.885,0.894-0.885h41.071c0.503,0,0.893,0.411,0.893,0.885v23.184
			c0,0.493-0.39,0.904-0.893,0.904h-41.071c-0.506,0-0.894-0.412-0.894-0.904V146.239z"/>
	</g>
	<g>
		<path fill="#BCCAD8" d="M31.565,284.689c0-0.492,0.391-0.882,0.893-0.882h41.083c0.493,0,0.891,0.39,0.891,0.882v23.166
			c0,0.51-0.398,0.902-0.891,0.902H32.458c-0.502,0-0.893-0.393-0.893-0.902V284.689z"/>
	</g>
	<g>
		<path fill="#BCCAD8" d="M31.565,238.547c0-0.514,0.391-0.883,0.893-0.883h41.083c0.493,0,0.891,0.369,0.891,0.883v23.163
			c0,0.514-0.398,0.902-0.891,0.902H32.458c-0.502,0-0.893-0.389-0.893-0.902V238.547z"/>
	</g>
	<g>
		<path fill="#BCCAD8" d="M31.565,192.383c0-0.472,0.391-0.883,0.893-0.883h41.083c0.493,0,0.891,0.411,0.891,0.883v23.184
			c0,0.514-0.398,0.882-0.891,0.882H32.458c-0.502,0-0.893-0.368-0.893-0.882V192.383z"/>
	</g>
	<g>
		<path fill="#BCCAD8" d="M31.565,146.239c0-0.474,0.391-0.885,0.893-0.885h41.083c0.493,0,0.891,0.411,0.891,0.885v23.184
			c0,0.493-0.398,0.904-0.891,0.904H32.458c-0.502,0-0.893-0.412-0.893-0.904V146.239z"/>
	</g>
	<g>
		<path fill="#BCCAD8" d="M245.106,163.406c0,0.492-0.403,0.881-0.896,0.881h-41.079c-0.494,0-0.895-0.39-0.895-0.881v-23.165
			c0-0.513,0.401-0.903,0.895-0.903h41.079c0.493,0,0.896,0.39,0.896,0.903V163.406z"/>
	</g>
	<g>
		<path fill="#BCCAD8" d="M318.594,308.223c-0.729,0-1.325-0.596-1.325-1.334v-61.32c0-0.739,0.596-1.314,1.325-1.314h34.6
			c0.739,0,1.345,0.575,1.345,1.314v61.32c0,0.738-0.605,1.334-1.345,1.334H318.594z"/>
	</g>
	<g>
		<path fill="#BCCAD8" d="M272.232,205.587c-0.718,0-1.313-0.597-1.313-1.336v-61.319c0-0.739,0.595-1.336,1.313-1.336h34.612
			c0.739,0,1.335,0.598,1.335,1.336v61.319c0,0.739-0.596,1.336-1.335,1.336H272.232z"/>
	</g>
	<g>
		<path fill="#BCCAD8" d="M327.68,205.587c-0.73,0-1.326-0.597-1.326-1.336v-61.319c0-0.739,0.596-1.336,1.326-1.336h34.603
			c0.74,0,1.346,0.598,1.346,1.336v61.319c0,0.739-0.605,1.336-1.346,1.336H327.68z"/>
	</g>
</g>
</svg>
