<?xml version="1.0" encoding="utf-8"?>
<!-- Generator: Adobe Illustrator 16.2.0, SVG Export Plug-In . SVG Version: 6.00 Build 0)  -->
<!DOCTYPE svg PUBLIC "-//W3C//DTD SVG 1.1//EN" "http://www.w3.org/Graphics/SVG/1.1/DTD/svg11.dtd">
<svg version="1.1" id="Слой_1" xmlns="http://www.w3.org/2000/svg" xmlns:xlink="http://www.w3.org/1999/xlink" x="0px" y="0px"
	 width="500px" height="500px" viewBox="0 0 500 500" enable-background="new 0 0 500 500" xml:space="preserve">
<g>
	<g>
		<path fill="#E8F0F7" d="M491.79,479.079c0,6.942-5.647,12.59-12.587,12.59H21.318c-6.951,0-12.589-5.647-12.589-12.59V21.196
			c0-6.961,5.638-12.587,12.589-12.587h457.885c6.939,0,12.587,5.626,12.587,12.587V479.079z"/>
	</g>
	<path fill="#B3B3B3" d="M395.599,60.319H123.991l-13.579,34.879h18.264v301.646v37.242h262.211v-37.242V95.198h18.267
		L395.599,60.319z M187.402,377.705h-40.699v-39.251h40.699V377.705z M187.402,319.246h-40.699v-39.272h40.699V319.246z
		 M187.402,260.767h-40.699v-39.271h40.699V260.767z M187.402,202.289h-40.699v-39.25h40.699V202.289z M187.402,143.831h-40.699
		v-39.272h40.699V143.831z M249.16,377.705h-40.713v-39.251h40.713V377.705z M249.16,319.246h-40.713v-39.272h40.713V319.246z
		 M249.16,260.767h-40.713v-39.271h40.713V260.767z M249.16,202.289h-40.713v-39.25h40.713V202.289z M249.16,143.831h-40.713
		v-39.272h40.713V143.831z M269.49,104.558h40.713v39.272H269.49V104.558z M310.945,377.705h-40.713v-39.251h40.713V377.705z
		 M310.945,319.246h-40.713v-39.272h40.713V319.246z M310.945,260.767h-40.713v-39.271h40.713V260.767z M310.945,202.289h-40.713
		v-39.25h40.713V202.289z M331.433,104.558h40.715v39.272h-40.715V104.558z M372.86,377.705h-40.687v-39.251h40.687V377.705z
		 M372.86,319.246h-40.687v-39.272h40.687V319.246z M372.86,260.767h-40.687v-39.271h40.687V260.767z M372.86,202.289h-40.687
		v-39.25h40.687V202.289z"/>
</g>
</svg>
