<?xml version="1.0" encoding="utf-8"?>
<!-- Generator: Adobe Illustrator 16.2.0, SVG Export Plug-In . SVG Version: 6.00 Build 0)  -->
<!DOCTYPE svg PUBLIC "-//W3C//DTD SVG 1.1//EN" "http://www.w3.org/Graphics/SVG/1.1/DTD/svg11.dtd">
<svg version="1.1" xmlns="http://www.w3.org/2000/svg" xmlns:xlink="http://www.w3.org/1999/xlink" x="0px" y="0px" width="500px"
	 height="500px" viewBox="0 0 500 500" enable-background="new 0 0 500 500" xml:space="preserve">
<g id="Слой_2">
	<g>
		<path fill="#E8F0F7" d="M500.29,485.688c0,7.158-5.835,12.981-13.004,12.981H14.235c-7.182,0-13.006-5.823-13.006-12.981V13.587
			c0-7.177,5.824-12.979,13.006-12.979h473.051c7.169,0,13.004,5.801,13.004,12.979V485.688z"/>
	</g>
</g>
<g id="Слой_1">
	<g>
		<g>
			<g>
				<g>
					<path fill="#6C7A88" d="M485.979,478.221H31.805c-5.337,0-9.651-4.328-9.651-9.665V14.382c0-5.339,4.313-9.665,9.651-9.665
						H485.98c5.337,0,9.666,4.326,9.666,9.665v454.174C495.646,473.893,491.316,478.221,485.979,478.221z M41.444,458.915h434.883
						V24.019H41.444V458.915z"/>
				</g>
			</g>
			<g>
				<g>
					<path fill="#6C7A88" d="M261.206,251.504c-5.337,0-9.651-4.327-9.651-9.666V14.122c0-5.339,4.314-9.665,9.651-9.665
						c5.341,0,9.651,4.326,9.651,9.665v227.716C270.857,247.177,266.547,251.504,261.206,251.504z"/>
				</g>
			</g>
			<g>
				<g>
					<path fill="#6C7A88" d="M317.688,251.504H194.44c-5.312,0-9.65-4.327-9.65-9.666c0-5.337,4.338-9.637,9.65-9.637h123.25
						c5.339,0,9.652,4.3,9.652,9.637C327.342,247.177,323.027,251.504,317.688,251.504z"/>
				</g>
			</g>
			<g>
				<g>
					<path fill="#6C7A88" d="M261.206,478.221c-5.337,0-9.651-4.328-9.651-9.665V341.13c0-5.34,4.314-9.667,9.651-9.667
						c5.341,0,9.651,4.327,9.651,9.667v127.426C270.857,473.893,266.547,478.221,261.206,478.221z"/>
				</g>
			</g>
			<g>
				<g>
					<path fill="#6C7A88" d="M485.922,350.766H345.82c-5.312,0-9.651-4.295-9.651-9.636c0-5.34,4.341-9.667,9.651-9.667h140.102
						c5.337,0,9.651,4.327,9.651,9.667C495.573,346.471,491.259,350.766,485.922,350.766z"/>
				</g>
			</g>
			<g>
				<g>
					<path fill="#6C7A88" d="M53.051,108.349H10.546c-5.313,0-9.652-4.327-9.652-9.665s4.339-9.638,9.652-9.638h42.505
						c5.314,0,9.651,4.299,9.651,9.638C62.702,104.023,58.365,108.349,53.051,108.349z"/>
				</g>
			</g>
			<g>
				<g>
					<path fill="#6C7A88" d="M53.051,191.993H10.546c-5.313,0-9.652-4.326-9.652-9.665c0-5.311,4.339-9.636,9.652-9.636h42.505
						c5.314,0,9.651,4.326,9.651,9.636C62.702,187.667,58.365,191.993,53.051,191.993z"/>
				</g>
			</g>
			<g>
				<g>
					<g>
						<path fill="#6C7A88" d="M110.809,499c-5.337,0-9.651-4.3-9.651-9.638v-42.493c0-5.34,4.314-9.636,9.651-9.636
							c5.341,0,9.639,4.296,9.639,9.636v42.493C120.447,494.7,116.15,499,110.809,499z"/>
					</g>
				</g>
				<g>
					<g>
						<path fill="#6C7A88" d="M194.44,499c-5.312,0-9.65-4.3-9.65-9.638v-42.493c0-5.34,4.338-9.636,9.65-9.636
							c5.34,0,9.665,4.296,9.665,9.636v42.493C204.105,494.7,199.78,499,194.44,499z"/>
					</g>
				</g>
			</g>
			<g>
				<g>
					<path fill="#6C7A88" d="M292.634,415.191c-2.161,0-4.337-0.711-6.145-2.189c-4.106-3.396-4.683-9.502-1.287-13.609
						l53.183-64.395c3.383-4.137,9.448-4.71,13.583-1.314c4.105,3.396,4.709,9.473,1.313,13.58l-53.197,64.426
						C298.166,414.018,295.4,415.191,292.634,415.191z"/>
				</g>
			</g>
			<g>
				<g>
					<path fill="#6C7A88" d="M103.648,250.504H31.805c-5.337,0-9.651-4.327-9.651-9.666c0-5.337,4.313-9.637,9.651-9.637h71.844
						c5.341,0,9.665,4.3,9.665,9.637C113.313,246.177,108.989,250.504,103.648,250.504z"/>
				</g>
			</g>
			<g>
				<g>
					<path fill="#6C7A88" d="M103.648,250.504c-2.464,0-4.928-0.959-6.843-2.847c-3.751-3.806-3.737-9.912,0.041-13.664
						l55.786-55.416c3.78-3.751,9.869-3.724,13.648,0.055c3.751,3.806,3.738,9.911-0.041,13.662l-55.759,55.39
						C108.593,249.572,106.115,250.504,103.648,250.504z"/>
				</g>
			</g>
		</g>
	</g>
</g>
</svg>
