<svg width="25" height="32" viewBox="0 0 25 32" fill="none" xmlns="http://www.w3.org/2000/svg">
<path fill-rule="evenodd" clip-rule="evenodd" d="M25 12.5C25 17.7544 19.4967 23.8447 15.5446 28.2182C14.3042 29.5909 13.2166 30.7945 12.5 31.75C11.7834 30.7945 10.6958 29.5909 9.4554 28.2182C5.50334 23.8447 0 17.7544 0 12.5C0 5.59644 5.59644 0 12.5 0C19.4036 0 25 5.59644 25 12.5ZM12.5 16C14.9853 16 17 13.9853 17 11.5C17 9.01472 14.9853 7 12.5 7C10.0147 7 8 9.01472 8 11.5C8 13.9853 10.0147 16 12.5 16Z" fill="#0078CE"/>
</svg>
