<svg width="36" height="34" viewBox="0 0 36 34" fill="none" xmlns="http://www.w3.org/2000/svg">
<path d="M18 19.25C16.8875 19.25 15.7999 18.9201 14.8749 18.302C13.9499 17.6839 13.2289 16.8054 12.8032 15.7776C12.3774 14.7498 12.266 13.6188 12.4831 12.5276C12.7001 11.4365 13.2359 10.4342 14.0225 9.64753C14.8092 8.86086 15.8115 8.32513 16.9026 8.10809C17.9938 7.89104 19.1248 8.00244 20.1526 8.42818C21.1804 8.85392 22.0589 9.57489 22.677 10.4999C23.2951 11.4249 23.625 12.5125 23.625 13.625C23.6232 15.1163 23.03 16.546 21.9755 17.6005C20.921 18.655 19.4913 19.2482 18 19.25ZM18 10.25C17.3325 10.25 16.68 10.4479 16.125 10.8188C15.5699 11.1896 15.1374 11.7167 14.8819 12.3334C14.6265 12.9501 14.5596 13.6287 14.6899 14.2834C14.8201 14.9381 15.1415 15.5395 15.6135 16.0115C16.0855 16.4835 16.6869 16.8049 17.3416 16.9352C17.9963 17.0654 18.6749 16.9985 19.2916 16.7431C19.9083 16.4877 20.4354 16.0551 20.8062 15.5001C21.1771 14.945 21.375 14.2925 21.375 13.625C21.3741 12.7302 21.0182 11.8722 20.3855 11.2395C19.7528 10.6068 18.8948 10.2509 18 10.25Z" fill="#DAE2E8"/>
<path d="M18 32.75L8.50951 21.5574C8.37764 21.3893 8.24714 21.2202 8.11801 21.05C6.49687 18.9145 5.62108 16.3061 5.62501 13.625C5.62501 10.3429 6.9288 7.19532 9.24957 4.87455C11.5703 2.55379 14.718 1.25 18 1.25C21.2821 1.25 24.4297 2.55379 26.7505 4.87455C29.0712 7.19532 30.375 10.3429 30.375 13.625C30.3789 16.3049 29.5036 18.9121 27.8831 21.0466L27.882 21.05C27.882 21.05 27.5445 21.4933 27.4939 21.5529L18 32.75ZM9.91351 19.6944C9.91576 19.6944 10.1768 20.0409 10.2364 20.1151L18 29.2715L25.7738 20.1027C25.8233 20.0409 26.0865 19.6921 26.0876 19.691C27.4119 17.9463 28.1276 15.8154 28.125 13.625C28.125 10.9397 27.0583 8.36435 25.1595 6.46554C23.2607 4.56674 20.6853 3.5 18 3.5C15.3147 3.5 12.7394 4.56674 10.8406 6.46554C8.94175 8.36435 7.87501 10.9397 7.87501 13.625C7.87265 15.8168 8.58914 17.9488 9.91464 19.6944H9.91351Z" fill="#DAE2E8"/>
</svg>
