<svg width="30" height="30" viewBox="0 0 30 30" fill="none" xmlns="http://www.w3.org/2000/svg">
<g clip-path="url(#clip0_1312_1339)">
<path d="M15.36 0C20.0775 0 24.4455 2.0925 27.342 5.616C27.4245 5.71588 27.4861 5.83133 27.5231 5.9555C27.5601 6.07966 27.5717 6.21 27.5573 6.33875C27.5429 6.4675 27.5027 6.59204 27.4392 6.70495C27.3757 6.81786 27.2901 6.91684 27.1875 6.996C26.9787 7.15965 26.7144 7.23552 26.4506 7.20752C26.1868 7.17952 25.9443 7.04984 25.7745 6.846C24.508 5.31184 22.9166 4.07794 21.1154 3.23335C19.3142 2.38876 17.3479 1.95453 15.3585 1.962C7.986 1.962 2.0085 7.8 2.0085 15C2.0085 22.2 7.986 28.038 15.3585 28.038C19.521 28.038 23.3655 26.166 25.8825 23.0235C26.0494 22.8176 26.29 22.6847 26.5532 22.6531C26.8164 22.6214 27.0815 22.6935 27.2925 22.854C27.396 22.9318 27.4827 23.0296 27.5476 23.1416C27.6126 23.2536 27.6543 23.3775 27.6704 23.506C27.6865 23.6344 27.6766 23.7648 27.6413 23.8893C27.606 24.0139 27.5461 24.1301 27.465 24.231C24.573 27.846 20.1465 30 15.36 30C6.8745 30 0 23.2845 0 15C0 6.7155 6.876 0 15.36 0ZM25.647 10.74L29.706 14.8005C30.099 15.192 30.1065 15.8205 29.724 16.2045L25.758 20.169C25.5698 20.3532 25.3162 20.455 25.0529 20.4522C24.7896 20.4494 24.5382 20.3421 24.354 20.154C24.2605 20.0629 24.1859 19.9542 24.1345 19.8342C24.0831 19.7142 24.0558 19.5852 24.0543 19.4547C24.0528 19.3241 24.077 19.1946 24.1256 19.0734C24.1742 18.9522 24.2462 18.8418 24.3375 18.7485L26.658 16.428H11.193C11.0626 16.4296 10.9332 16.4055 10.8121 16.357C10.691 16.3086 10.5806 16.2368 10.4873 16.1457C10.394 16.0546 10.3195 15.946 10.2682 15.8261C10.2168 15.7062 10.1896 15.5774 10.188 15.447C10.188 14.904 10.638 14.4645 11.193 14.4645H26.5965L24.2595 12.1275C24.0712 11.9435 23.9636 11.6922 23.9605 11.4289C23.9574 11.1656 24.059 10.9119 24.243 10.7235C24.4314 10.5395 24.6851 10.4379 24.9484 10.441C25.2117 10.4441 25.463 10.5517 25.647 10.74Z" fill="#DAE2E8"/>
</g>
<defs>
<clipPath id="clip0_1312_1339">
<rect width="30" height="30" fill="white"/>
</clipPath>
</defs>
</svg>
