<svg width="65" height="84" viewBox="0 0 65 84" fill="none" xmlns="http://www.w3.org/2000/svg">
<g clip-path="url(#clip0_1312_1409)">
<path d="M0.198253 49.3481H5.18198V50.5247H1.49376V56.7642H0.171814L0.198253 49.3481Z" fill="white"/>
<path d="M5.64471 51.1724H6.88734V54.9267L9.53123 51.1724H10.7474V56.7642H9.50479V53.0363L6.8609 56.7642H5.64471V51.1724Z" fill="white"/>
<path d="M11.686 56.7511L11.7785 55.7067C11.9015 55.7198 12.0256 55.7198 12.1487 55.7067C12.7964 55.7067 13.2459 55.3895 13.2459 51.1328H17.4629V56.7246H16.1409V52.23H14.4356C14.4356 56.2884 13.6689 56.7907 12.4395 56.7907C12.1877 56.7978 11.9357 56.7845 11.686 56.7511Z" fill="white"/>
<path d="M19.1417 51.1724H20.4637V53.1288H21.7856C23.1076 53.1288 24.0065 53.6841 24.0065 54.9002C24.0065 56.1164 23.1869 56.7642 21.8781 56.7642H19.2343L19.1417 51.1724ZM21.627 55.7331C22.2747 55.7331 22.6449 55.4422 22.6449 54.9002C22.6449 54.3582 22.2615 54.1335 21.6138 54.1335H20.3976V55.7331H21.627Z" fill="white"/>
<path d="M24.6543 55.667H25.2492C25.744 54.4617 25.9609 53.1604 25.8837 51.8598V51.1724H30.2064V55.667H30.9732L30.841 58.1654H29.7702V56.8435H25.8044L25.6854 58.1654H24.6146L24.6543 55.667ZM28.9242 55.667V52.2696H27.0867V53.0231C27.1068 53.9312 26.931 54.833 26.5711 55.667H28.9242Z" fill="white"/>
<path d="M32.1761 51.1724H33.432V54.9267C34.3045 53.6708 35.1902 52.4282 36.0759 51.1724H37.2789V56.7642H36.0362V53.0363L33.3923 56.7642H32.1894L32.1761 51.1724Z" fill="white"/>
<path d="M39.9888 54.6755C39.6102 54.5882 39.2727 54.3741 39.0323 54.0688C38.7919 53.7635 38.663 53.3852 38.6669 52.9966C38.6669 51.9127 39.46 51.1724 40.8613 51.1724H43.677V56.7642H42.3551V54.887H41.205L39.8831 56.7642H38.4421L39.9888 54.6755ZM42.4212 53.922V52.2167H41.0992C40.4251 52.2167 40.0153 52.534 40.0153 53.0627C40.0153 53.5915 40.4515 53.922 41.1125 53.922H42.4212Z" fill="white"/>
<path d="M0.198278 62.0521H3.11978C3.47388 62.0046 3.83407 62.034 4.1758 62.1382C4.51753 62.2425 4.83276 62.4192 5.1 62.6563C5.36724 62.8935 5.58022 63.1854 5.7244 63.5123C5.86859 63.8392 5.94059 64.1934 5.93552 64.5506C5.93552 66.2163 4.61357 67.0755 2.97436 67.0755H1.507V69.4682H0.185059L0.198278 62.0521ZM3.01402 65.9122C4.00548 65.9122 4.61357 65.357 4.61357 64.5903C4.61357 63.8235 3.99226 63.2683 3.01402 63.2683H1.507V65.9122H3.01402Z" fill="white"/>
<path d="M7.08563 63.8765H8.32826V67.6176C9.21396 66.3749 10.0864 65.1191 10.9721 63.8765H12.1751V69.4683H10.9457V65.7404L8.30182 69.4683H7.08563V63.8765Z" fill="white"/>
<path d="M13.2988 68.556L14.0655 67.8025C14.25 68.0201 14.4786 68.1962 14.736 68.3192C14.9935 68.4423 15.274 68.5094 15.5593 68.5163C15.9446 68.5191 16.3191 68.3892 16.62 68.1485C16.9209 67.9078 17.1298 67.5709 17.2117 67.1944H15.0173V66.269H17.1985C17.1281 65.8991 16.9314 65.565 16.6421 65.3239C16.3528 65.0828 15.9888 64.9496 15.6122 64.9471C15.3266 64.9444 15.0436 65.0019 14.7817 65.1158C14.5198 65.2297 14.2848 65.3974 14.0919 65.608L13.4045 64.8149C13.6871 64.5101 14.0313 64.2688 14.4141 64.107C14.797 63.9452 15.2099 63.8665 15.6254 63.8763C16.109 63.8941 16.5805 64.0323 16.9972 64.2784C17.414 64.5244 17.7627 64.8706 18.0118 65.2855C18.2609 65.7004 18.4026 66.1709 18.4239 66.6544C18.4452 67.1379 18.3456 67.619 18.134 68.0542C17.9224 68.4895 17.6055 68.865 17.2121 69.1468C16.8187 69.4287 16.3612 69.6079 15.881 69.6682C15.4008 69.7285 14.9132 69.6681 14.4623 69.4923C14.0114 69.3166 13.6115 69.0311 13.2988 68.6617V68.556Z" fill="white"/>
<path d="M19.0757 69.4549L19.1814 68.4106H19.5516C20.1861 68.4106 20.6356 68.0933 20.6356 63.8367H24.8658V69.4285H23.5439V64.9339H21.8121C21.8121 68.9922 21.0454 69.4814 19.8028 69.4814C19.5601 69.4847 19.3174 69.4759 19.0757 69.4549Z" fill="white"/>
<path d="M27.6683 64.9737H25.8704V63.8765H30.7616V64.9737H28.9638V69.4683H27.6418L27.6683 64.9737Z" fill="white"/>
<path d="M31.4491 66.6789C31.4333 66.0844 31.5953 65.4986 31.9144 64.9967C32.2336 64.4948 32.6952 64.0995 33.2404 63.8616C33.7855 63.6236 34.3892 63.5538 34.9742 63.661C35.5593 63.7683 36.099 64.0477 36.5243 64.4635C36.9495 64.8793 37.241 65.4126 37.3614 65.9951C37.4817 66.5776 37.4255 67.1827 37.1998 67.7331C36.9742 68.2834 36.5894 68.7538 36.0948 69.0842C35.6002 69.4145 35.0182 69.5896 34.4234 69.5872C34.0355 69.5979 33.6494 69.5304 33.2881 69.3888C32.9267 69.2473 32.5976 69.0345 32.3201 68.7632C32.0426 68.4919 31.8225 68.1676 31.6729 67.8096C31.5233 67.4515 31.4471 67.067 31.4491 66.6789ZM36.142 66.6789C36.1508 66.4471 36.113 66.2159 36.0308 65.999C35.9486 65.7821 35.8236 65.5839 35.6633 65.4162C35.503 65.2485 35.3107 65.1147 35.0977 65.0228C34.8847 64.9309 34.6554 64.8827 34.4234 64.8811C34.192 64.8807 33.963 64.9277 33.7505 65.0192C33.538 65.1108 33.3465 65.245 33.1879 65.4135C33.0293 65.582 32.907 65.7812 32.8285 65.9989C32.7499 66.2165 32.7169 66.448 32.7313 66.6789C32.7225 66.9097 32.7599 67.1398 32.8413 67.3558C32.9227 67.5719 33.0465 67.7695 33.2054 67.937C33.3643 68.1045 33.555 68.2385 33.7665 68.3312C33.9779 68.4239 34.2058 68.4734 34.4366 68.4768C34.6692 68.4791 34.8996 68.4334 35.1137 68.3426C35.3278 68.2519 35.5208 68.118 35.6808 67.9493C35.8409 67.7806 35.9644 67.5807 36.0437 67.3621C36.1231 67.1436 36.1565 66.911 36.142 66.6789Z" fill="white"/>
<path d="M38.7594 63.8764H40.0813V64.7753C40.2855 64.4554 40.5669 64.1921 40.8995 64.0096C41.2322 63.8271 41.6055 63.7313 41.9849 63.731C42.7084 63.8 43.3802 64.1363 43.8691 64.674C44.3579 65.2118 44.6288 65.9125 44.6288 66.6392C44.6288 67.366 44.3579 68.0667 43.8691 68.6044C43.3802 69.1422 42.7084 69.4785 41.9849 69.5475C41.6121 69.5509 41.2441 69.4637 40.9124 69.2933C40.5808 69.1229 40.2956 68.8744 40.0813 68.5693V71.1338H38.7594V63.8764ZM43.2276 66.6525C43.2456 66.429 43.218 66.2042 43.1463 65.9917C43.0747 65.7793 42.9606 65.5836 42.811 65.4167C42.6614 65.2497 42.4793 65.115 42.2759 65.0206C42.0726 64.9263 41.8521 64.8743 41.628 64.8678C41.1888 64.9212 40.7842 65.1335 40.4908 65.4648C40.1974 65.796 40.0354 66.2232 40.0354 66.6657C40.0354 67.1082 40.1974 67.5354 40.4908 67.8666C40.7842 68.1978 41.1888 68.4102 41.628 68.4635C41.8552 68.4593 42.079 68.4079 42.2852 68.3125C42.4915 68.2172 42.6756 68.08 42.826 67.9097C42.9764 67.7394 43.0898 67.5397 43.1589 67.3233C43.2281 67.1069 43.2514 66.8784 43.2276 66.6525Z" fill="white"/>
<path d="M45.5806 66.6789C45.5649 66.0844 45.7269 65.4986 46.046 64.9967C46.3652 64.4948 46.8268 64.0995 47.372 63.8616C47.9171 63.6236 48.5208 63.5538 49.1058 63.661C49.6909 63.7683 50.2306 64.0477 50.6559 64.4635C51.0811 64.8793 51.3726 65.4126 51.493 65.9951C51.6133 66.5776 51.5571 67.1827 51.3314 67.7331C51.1058 68.2834 50.721 68.7538 50.2264 69.0842C49.7318 69.4145 49.1498 69.5896 48.555 69.5872C48.168 69.5942 47.7835 69.5243 47.4238 69.3814C47.0641 69.2386 46.7364 69.0257 46.4596 68.7551C46.1829 68.4845 45.9627 68.1616 45.8118 67.8052C45.6609 67.4488 45.5823 67.066 45.5806 66.6789ZM50.2603 66.6789C50.271 66.4478 50.2349 66.2169 50.1542 66C50.0734 65.7831 49.9497 65.5848 49.7905 65.4169C49.6312 65.249 49.4397 65.115 49.2274 65.023C49.0151 64.9309 48.7864 64.8826 48.555 64.8811C48.3214 64.877 48.0895 64.9213 47.8738 65.0113C47.6582 65.1012 47.4635 65.2348 47.3021 65.4037C47.1406 65.5726 47.0159 65.7731 46.9358 65.9926C46.8557 66.2121 46.8219 66.4458 46.8365 66.6789C46.8277 66.9097 46.865 67.1398 46.9464 67.3558C47.0279 67.5719 47.1516 67.7695 47.3105 67.937C47.4694 68.1045 47.6602 68.2385 47.8716 68.3313C48.0831 68.424 48.3109 68.4734 48.5418 68.4768C48.776 68.4829 49.0088 68.44 49.2254 68.3507C49.442 68.2615 49.6375 68.1279 49.7993 67.9586C49.9612 67.7892 50.0858 67.5879 50.1652 67.3675C50.2446 67.1472 50.277 66.9126 50.2603 66.6789Z" fill="white"/>
<path d="M52.9042 63.8765H55.7728C56.8832 63.8765 57.6103 64.4185 57.6103 65.1984C57.6253 65.4867 57.5456 65.772 57.3833 66.0107C57.221 66.2494 56.985 66.4284 56.7114 66.5204C57.0455 66.5634 57.3507 66.7324 57.5644 66.9928C57.7782 67.2532 57.8844 67.5855 57.8615 67.9216C57.8615 68.8602 57.0683 69.4418 55.7992 69.4418H52.9042V63.8765ZM55.4687 66.1766C56.0107 66.1766 56.3148 65.899 56.3148 65.4892C56.3148 65.0794 56.0636 64.8547 55.4952 64.8547H54.1732V66.1766H55.4687ZM55.6142 68.4504C56.2355 68.4504 56.566 68.1596 56.566 67.7233C56.566 67.2871 56.2355 67.0491 55.5481 67.0491H54.16V68.4504H55.6142Z" fill="white"/>
<path d="M4.53426 79.224C3.88969 79.5896 3.17154 79.8064 2.43237 79.8586C2.10983 79.8949 1.78323 79.8593 1.47612 79.7542C1.16901 79.6491 0.889037 79.4772 0.656378 79.2509C0.423719 79.0245 0.244168 78.7494 0.130664 78.4453C0.0171609 78.1412 -0.0274675 77.8157 -4.86337e-06 77.4923V74.7559H1.32194V77.1618C1.32194 78.1004 1.78462 78.6424 2.70998 78.6424C3.36065 78.6238 3.99291 78.4222 4.53426 78.0607V74.7559H5.85621V82.1587H4.53426V79.224Z" fill="white"/>
<path d="M7.28389 79.3166C7.26611 78.9444 7.32346 78.5724 7.4525 78.2228C7.58154 77.8732 7.77964 77.5532 8.035 77.2818C8.29035 77.0104 8.59773 76.7932 8.93882 76.6431C9.2799 76.4931 9.64771 76.4132 10.0203 76.4083C10.3997 76.4048 10.7754 76.4831 11.1219 76.6377C11.4683 76.7923 11.7775 77.0196 12.0283 77.3043C12.2791 77.589 12.4657 77.9243 12.5754 78.2875C12.6852 78.6506 12.7154 79.0332 12.6642 79.4091C12.6713 79.528 12.6713 79.6472 12.6642 79.766H8.56618C8.60299 80.1645 8.79027 80.534 9.0899 80.7992C9.38952 81.0644 9.77896 81.2055 10.1789 81.1937C10.4568 81.2093 10.7348 81.168 10.9962 81.0726C11.2576 80.9771 11.4968 80.8294 11.6992 80.6385L12.4395 81.3127C12.1652 81.6521 11.8159 81.9231 11.419 82.1043C11.0221 82.2855 10.5886 82.3721 10.1525 82.3571C9.75805 82.3678 9.36577 82.2951 9.00134 82.1438C8.63691 81.9924 8.30855 81.7658 8.03775 81.4788C7.76695 81.1918 7.55982 80.8508 7.42991 80.4782C7.3 80.1056 7.25024 79.7098 7.28389 79.3166ZM11.4348 78.92C11.4349 78.5376 11.2858 78.1703 11.0191 77.8962C10.7525 77.6221 10.3893 77.463 10.0071 77.4526C9.80807 77.4526 9.61102 77.4921 9.42732 77.5686C9.24361 77.6452 9.07689 77.7574 8.93677 77.8987C8.79666 78.04 8.68593 78.2077 8.61098 78.3921C8.53603 78.5765 8.49833 78.7739 8.50008 78.9729L11.4348 78.92Z" fill="white"/>
<path d="M14.0391 76.5669H15.361V77.5055C15.5652 77.1857 15.8465 76.9223 16.1792 76.7398C16.5119 76.5573 16.8852 76.4615 17.2646 76.4612C17.9881 76.5302 18.6599 76.8665 19.1487 77.4042C19.6376 77.942 19.9085 78.6427 19.9085 79.3695C19.9085 80.0962 19.6376 80.7969 19.1487 81.3347C18.6599 81.8724 17.9881 82.2087 17.2646 82.2777C16.8918 82.2812 16.5237 82.1939 16.1921 82.0235C15.8605 81.8531 15.5753 81.6046 15.361 81.2995V83.8509H14.0391V76.5669ZM18.5205 79.3166C18.5385 79.0931 18.5108 78.8683 18.4392 78.6559C18.3676 78.4434 18.2535 78.2478 18.1039 78.0808C17.9542 77.9139 17.7722 77.7791 17.5688 77.6847C17.3655 77.5904 17.145 77.5384 16.9209 77.532C16.4816 77.5853 16.0771 77.7977 15.7837 78.1289C15.4903 78.4601 15.3283 78.8873 15.3283 79.3298C15.3283 79.7723 15.4903 80.1995 15.7837 80.5307C16.0771 80.8619 16.4816 81.0743 16.9209 81.1276C17.1481 81.1234 17.3719 81.072 17.5781 80.9767C17.7844 80.8813 17.9685 80.7441 18.1189 80.5739C18.2693 80.4036 18.3827 80.2039 18.4518 79.9874C18.5209 79.771 18.5443 79.5425 18.5205 79.3166Z" fill="white"/>
<path d="M21.204 76.5669H22.5259V78.8406H24.9979V76.5669H26.3199V82.1587H24.9979V79.9114H22.4863V82.1587H21.1643L21.204 76.5669Z" fill="white"/>
<path d="M27.589 79.3827C27.5732 78.7876 27.7356 78.2013 28.0553 77.6991C28.375 77.1969 28.8375 76.8016 29.3834 76.5641C29.9293 76.3265 30.5337 76.2575 31.1191 76.3658C31.7045 76.4741 32.2442 76.7549 32.669 77.172C33.0937 77.5892 33.3842 78.1237 33.503 78.7071C33.6219 79.2905 33.5637 79.896 33.336 80.4461C33.1083 80.9962 32.7215 81.4657 32.2251 81.7944C31.7287 82.1231 31.1455 82.2961 30.5502 82.291C30.1643 82.2962 29.7812 82.225 29.423 82.0813C29.0648 81.9377 28.7387 81.7245 28.4634 81.4541C28.188 81.1837 27.969 80.8614 27.8189 80.5059C27.6689 80.1504 27.5907 79.7686 27.589 79.3827ZM32.2687 79.3827C32.2794 79.1498 32.2429 78.9172 32.1615 78.6987C32.0801 78.4803 31.9554 78.2805 31.795 78.1114C31.6345 77.9422 31.4415 77.8073 31.2276 77.7145C31.0137 77.6218 30.7833 77.5732 30.5502 77.5717C30.3181 77.5709 30.0884 77.6183 29.8756 77.7108C29.6628 77.8034 29.4715 77.939 29.3137 78.1092C29.156 78.2793 29.0352 78.4804 28.959 78.6996C28.8829 78.9188 28.853 79.1514 28.8713 79.3827C28.8625 79.6134 28.8998 79.8436 28.9812 80.0596C29.0627 80.2757 29.1864 80.4733 29.3453 80.6408C29.5042 80.8083 29.695 80.9423 29.9064 81.035C30.1179 81.1277 30.3457 81.1772 30.5766 81.1806C30.8102 81.1847 31.0421 81.1404 31.2578 81.0504C31.4734 80.9605 31.6681 80.8268 31.8295 80.6579C31.991 80.489 32.1157 80.2886 32.1958 80.0691C32.276 79.8496 32.3098 79.6159 32.2951 79.3827H32.2687Z" fill="white"/>
<path d="M34.1987 81.4317L34.8068 80.6385C35.2965 81.0594 35.9193 81.2935 36.565 81.2995C37.1467 81.2995 37.6226 80.9955 37.6226 80.5328C37.6226 80.0701 37.226 79.8322 36.4857 79.8322H35.7983V78.9068H36.4857C37.0938 78.9068 37.4772 78.6027 37.4772 78.1797C37.4772 77.7567 37.0806 77.5452 36.5518 77.5452C35.9722 77.5396 35.4096 77.7412 34.9655 78.1136L34.397 77.3072C35.0357 76.7794 35.8424 76.498 36.6708 76.5141C37.9002 76.5141 38.7594 77.1486 38.7594 78.0079C38.7754 78.2945 38.6976 78.5785 38.5378 78.817C38.378 79.0555 38.1449 79.2355 37.8737 79.3298C38.1697 79.3965 38.4337 79.563 38.6214 79.8013C38.8092 80.0396 38.9092 80.3352 38.9049 80.6385C38.9049 81.5771 38.0191 82.3438 36.6575 82.3438C35.7521 82.3615 34.8736 82.0356 34.1987 81.4317Z" fill="white"/>
<path d="M39.9227 79.3166C39.9049 78.9444 39.9623 78.5724 40.0913 78.2228C40.2204 77.8732 40.4185 77.5532 40.6738 77.2818C40.9292 77.0104 41.2366 76.7932 41.5776 76.6431C41.9187 76.4931 42.2865 76.4132 42.6591 76.4083C43.0385 76.4048 43.4142 76.4831 43.7607 76.6377C44.1072 76.7923 44.4163 77.0196 44.6671 77.3043C44.9179 77.589 45.1045 77.9243 45.2143 78.2875C45.324 78.6507 45.3543 79.0332 45.303 79.4091C45.3101 79.528 45.3101 79.6472 45.303 79.7661H41.205C41.2168 79.9728 41.2693 80.1751 41.3595 80.3615C41.4496 80.5479 41.5757 80.7146 41.7304 80.8522C41.8852 80.9897 42.0656 81.0954 42.2612 81.163C42.4569 81.2307 42.664 81.2591 42.8706 81.2466C43.1415 81.2485 43.4099 81.1956 43.6598 81.0911C43.9097 80.9866 44.1359 80.8327 44.3248 80.6385L45.0783 81.3127C44.6863 81.7791 44.1582 82.1113 43.5681 82.2627C42.9779 82.4142 42.3552 82.3773 41.7871 82.1573C41.2189 81.9374 40.7337 81.5453 40.3994 81.0359C40.0651 80.5265 39.8985 79.9254 39.9227 79.3166ZM44.0604 78.92C44.0639 78.7308 44.0301 78.5427 43.9609 78.3665C43.8917 78.1904 43.7885 78.0296 43.6571 77.8933C43.5258 77.757 43.3689 77.648 43.1954 77.5724C43.0219 77.4968 42.8352 77.4561 42.6459 77.4527C42.2622 77.466 41.8981 77.6253 41.6279 77.898C41.3576 78.1707 41.2017 78.5362 41.1918 78.92H44.0604Z" fill="white"/>
<path d="M46.7043 76.5669H48.0262L49.7712 79.2108L51.5294 76.5669H52.8513V82.1587H51.5294V78.4308L49.7712 80.9425L48.0262 78.4573V82.1587H46.7043V76.5669Z" fill="white"/>
<path d="M54.4244 76.5669H55.7464V78.5366H57.0683C58.3903 78.5366 59.2892 79.0786 59.2892 80.2948C59.2892 81.511 58.4696 82.1587 57.1609 82.1587H54.517L54.4244 76.5669ZM56.9097 81.1276C57.5574 81.1276 57.9276 80.8368 57.9276 80.2948C57.9276 79.7528 57.5442 79.5281 56.8965 79.5281H55.7067V81.1276H56.9097Z" fill="white"/>
<path d="M61.2986 80.0701C60.9187 79.985 60.5799 79.7715 60.3391 79.4657C60.0982 79.1599 59.9702 78.7804 59.9766 78.3912C59.9766 77.3072 60.7698 76.5669 62.1843 76.5669H64.9868V82.1587H63.6649V80.2816H62.528L61.206 82.1587H59.7519L61.2986 80.0701ZM63.7177 79.3165V77.6112H62.3958C61.7084 77.6112 61.2986 77.9285 61.2986 78.4573C61.2986 78.9861 61.748 79.3165 62.409 79.3165H63.7177Z" fill="white"/>
<path d="M0.56842 0V38.8255H39.3543V0H0.56842ZM18.8773 32.5066H16.2335V15.4007H24.9451V18.0445H18.8773V32.5066ZM30.3254 22.6185C28.8105 23.9687 26.9004 24.7939 24.879 24.9715V32.5066H22.2351V22.3012L23.6363 22.3673C25.4122 22.4034 27.1423 21.8032 28.5143 20.6752C29.0534 20.1119 29.4693 19.4425 29.7356 18.7096C30.0019 17.9768 30.1127 17.1966 30.061 16.4185C30.1136 15.7433 30.023 15.0645 29.7952 14.4267C29.5674 13.7889 29.2075 13.2063 28.7391 12.7171C27.2808 11.5864 25.4662 11.0143 23.6231 11.1043H12.8625V32.5066H10.2186V8.434H23.5174C26.047 8.32438 28.5279 9.15294 30.484 10.7606C31.2315 11.4943 31.8157 12.3776 32.1984 13.3525C32.5811 14.3275 32.7537 15.3723 32.7049 16.4185C32.7612 17.5606 32.5786 18.7019 32.1689 19.7694C31.7592 20.837 31.1313 21.8073 30.3254 22.6185Z" fill="white"/>
</g>
<defs>
<clipPath id="clip0_1312_1409">
<rect width="65" height="83.8509" fill="white"/>
</clipPath>
</defs>
</svg>
