<svg width="30" height="30" viewBox="0 0 30 30" fill="none" xmlns="http://www.w3.org/2000/svg">
<path d="M13.5542 9.24075L10.1712 5.33599C9.78121 4.88601 9.06621 4.88801 8.61321 5.34199L5.83123 8.12882C5.00323 8.95777 4.76623 10.1887 5.24523 11.1756C8.10683 17.1002 12.8852 21.8851 18.8062 24.7548C19.7922 25.2338 21.0221 24.9968 21.8501 24.1679L24.6581 21.355C25.1131 20.9001 25.1141 20.1811 24.6601 19.7911L20.7401 16.4263C20.3301 16.0743 19.6932 16.1203 19.2822 16.5323L17.9182 17.8982C17.8483 17.9714 17.7564 18.0197 17.6565 18.0356C17.5566 18.0514 17.4543 18.0341 17.3652 17.9862C15.1356 16.7024 13.2862 14.8506 12.0052 12.6196C11.9572 12.5303 11.9399 12.4278 11.9557 12.3277C11.9716 12.2277 12.0199 12.1356 12.0932 12.0656L13.4532 10.7047C13.8652 10.2907 13.9102 9.65073 13.5542 9.23975V9.24075Z" stroke="black" stroke-width="2" stroke-linecap="round" stroke-linejoin="round"/>
</svg>
