<svg width="35" height="35" viewBox="0 0 35 35" fill="none" xmlns="http://www.w3.org/2000/svg">
<path fill-rule="evenodd" clip-rule="evenodd" d="M30 14.5C30 19.7544 24.4967 25.8447 20.5446 30.2182C19.3042 31.5909 18.2166 32.7945 17.5 33.75C16.7834 32.7945 15.6958 31.5909 14.4554 30.2182C10.5033 25.8447 5 19.7544 5 14.5C5 7.59644 10.5964 2 17.5 2C24.4036 2 30 7.59644 30 14.5ZM17.5 18C19.9853 18 22 15.9853 22 13.5C22 11.0147 19.9853 9 17.5 9C15.0147 9 13 11.0147 13 13.5C13 15.9853 15.0147 18 17.5 18Z" fill="#0078CE"/>
</svg>
