<svg width="160" height="100" viewBox="0 0 160 100" fill="none" xmlns="http://www.w3.org/2000/svg">
<path fill-rule="evenodd" clip-rule="evenodd" d="M75.8787 34.909H85.3465V62.6266H75.8787V34.909ZM59.8132 22.3813L65.1496 20.3779L73.5518 22.3813V59.7537L65.1496 62.4931L59.8132 59.7537V22.3813ZM15.3445 28.6377H58.8694L58.9466 21.9094L65.0665 19.5528L74.4037 21.9539L74.4571 28.5962L141.177 28.6377C106.054 25.462 99.1207 23.3874 85.207 20.0752L65.9005 15C43.5756 24.2095 36.4377 25.189 15.3445 28.6377ZM65.4375 57.2042L72.5071 55.3433V57.8809L65.4375 59.7388V57.2042ZM65.4583 52.3071L72.5309 50.7608V53.2984L65.4583 54.8417V52.3071ZM65.4375 47.3655L72.5071 46.4395V48.9741L65.4375 49.9001V47.3655ZM65.393 42.403L72.4656 41.94V44.4747L65.393 44.9377V42.403ZM65.4375 37.4406H72.5071V39.9753H65.4375V37.4406ZM65.3573 22.5742L72.43 23.8593V26.3939L65.3573 25.1088V22.5742ZM65.4167 27.6019L72.4893 28.4656V31.0002L65.4167 30.1365V27.6019ZM65.4167 32.4575L72.4893 33.1163V35.651L65.4167 34.9921V32.4575ZM29.003 48.0748C29.006 48.0896 29.9201 48.1312 31.0063 48.615C32.704 49.3658 34.8498 51.0991 34.8498 54.7497C34.8498 60.742 31.8225 62.9205 27.8811 62.7335C27.2638 62.7038 26.038 62.7513 26.038 62.7008L25.9965 47.3476V34.8467L28.5222 34.8823C30.4602 34.9119 33.8111 36.8114 33.8111 40.9428C33.8111 44.5904 31.6919 46.9499 28.9377 47.3476L29.003 48.0748ZM25.9965 47.3476H26.6197H26.0261H25.9965ZM14.9883 34.909H24.4561V62.6266H14.9883V34.909ZM36.5238 34.909H45.9915V62.6266H36.5238V34.909ZM49.9122 45.9438C55.2248 45.9616 57.8692 49.7932 57.8692 54.5152C57.8692 59.2343 54.6015 62.8373 49.8914 62.8373C49.1553 62.8373 47.6951 62.962 47.6951 62.7988L47.6565 45.9379L49.9122 45.9438ZM124.885 34.909H134.35V62.6266H124.885V34.909ZM112.221 48.7841V63.2588C118.166 63.2588 123.164 57.961 123.384 48.7841C123.6 39.6102 118.166 34.3095 112.221 34.3095V48.7841ZM110.393 48.7841V63.2588C104.448 63.2588 99.4501 57.961 99.2335 48.7841C99.0139 39.6102 104.448 34.3095 110.393 34.3095V48.7841ZM89.4511 45.8043C94.7638 45.8221 97.4082 49.6537 97.4082 54.3757C97.4082 59.0948 94.1375 62.6949 89.4274 62.6949C88.6943 62.6949 87.2341 62.8195 87.2341 62.6593L87.1955 45.7954L89.4511 45.8043ZM138.384 34.7012C143.693 34.7161 146.338 38.5507 146.338 43.2697C146.338 47.9887 143.07 51.5918 138.363 51.5918C137.627 51.5918 136.167 51.7165 136.167 51.5532L136.125 34.6923L138.384 34.7012ZM95.577 34.8437H86.6761L95.577 45.3562V34.8437Z" fill="#1E4C9A"/>
<path fill-rule="evenodd" clip-rule="evenodd" d="M144.587 69.4905H143.545C143.017 69.4905 142.669 69.5024 142.503 69.5261C142.334 69.5528 142.192 69.6329 142.073 69.7695C141.951 69.909 141.892 70.087 141.892 70.3126C141.892 70.5441 141.951 70.7281 142.067 70.8646C142.183 71.0041 142.328 71.0872 142.506 71.1199C142.687 71.1555 143.049 71.1703 143.598 71.1703H144.587V69.4905ZM144.587 74.9901V72.2299H144.314C143.895 72.2299 143.598 72.2922 143.426 72.4169C143.254 72.5445 142.957 72.9214 142.542 73.5506L141.574 74.9901H139.983L140.788 73.699C141.105 73.1885 141.361 72.8294 141.55 72.6217C141.737 72.4169 141.978 72.2329 142.263 72.0696C141.645 71.9747 141.2 71.758 140.927 71.4256C140.654 71.0932 140.518 70.6955 140.518 70.2325C140.518 69.8259 140.619 69.4697 140.82 69.1581C141.025 68.8464 141.292 68.6387 141.625 68.5318C141.954 68.425 142.453 68.3716 143.112 68.3716H145.919V74.9901H144.587ZM134.021 68.3716H135.27V72.779L137.947 68.3716H139.274V74.9901H138.028V70.6688L135.353 74.9901H134.021V68.3716ZM127.346 74.9901V68.3716H128.678V70.9774H131.29V68.3716H132.626V74.9901H131.29V72.0963H128.678V74.9901H127.346ZM124.179 72.3724L123.271 69.9149L122.378 72.3724H124.179ZM126.637 74.9901H125.185L124.606 73.4883H121.965L121.422 74.9901H120.006L122.579 68.3716H123.992L126.637 74.9901ZM114.064 68.3716H119.318V74.9901H117.985V69.4845H115.397V74.9901H114.064V68.3716ZM106.345 74.9901V68.3716H108.339L109.538 72.8888L110.722 68.3716H112.723V74.9901H111.485V69.7784L110.173 74.9901H108.888L107.582 69.7784V74.9901H106.345ZM100.29 71.6779C100.29 72.4258 100.465 72.9956 100.806 73.3815C101.154 73.7673 101.593 73.9632 102.124 73.9632C102.656 73.9632 103.089 73.7703 103.433 73.3844C103.771 73.0016 103.944 72.4258 103.944 71.6601C103.944 70.9003 103.777 70.3334 103.445 69.9594C103.116 69.5884 102.673 69.4014 102.124 69.4014C101.575 69.4014 101.13 69.5914 100.795 69.9683C100.459 70.3453 100.29 70.9151 100.29 71.6779ZM98.9159 71.7224C98.9159 71.0457 99.0168 70.4818 99.2186 70.0217C99.367 69.6864 99.5748 69.3836 99.833 69.1165C100.091 68.8494 100.376 68.6476 100.688 68.52C101.1 68.3449 101.572 68.2588 102.109 68.2588C103.083 68.2588 103.861 68.5615 104.445 69.167C105.03 69.7695 105.321 70.6124 105.321 71.6897C105.324 72.7582 105.033 73.5952 104.451 74.1976C103.872 74.8031 103.098 75.1029 102.127 75.1029C101.145 75.1029 100.367 74.8031 99.7855 74.2036C99.2068 73.6041 98.9159 72.773 98.9159 71.7224ZM93.5766 68.3716H94.9092V71.1882C95.2089 71.1614 95.4108 71.0813 95.5146 70.9596C95.6215 70.8379 95.7818 70.4936 96.0014 69.9297C96.2774 69.2115 96.5564 68.7663 96.8324 68.5912C97.1114 68.4161 97.5566 68.33 98.1739 68.33C98.2036 68.33 98.2659 68.33 98.3639 68.3241V69.3154L98.1769 69.3094C97.9068 69.3094 97.705 69.3421 97.5803 69.4103C97.4527 69.4786 97.3518 69.5825 97.2717 69.722C97.1945 69.8615 97.0788 70.1434 96.9244 70.5738C96.8443 70.8023 96.7552 70.9952 96.6632 71.1496C96.5683 71.3009 96.3991 71.4464 96.1587 71.5829C96.4555 71.666 96.7018 71.8352 96.8947 72.0934C97.0906 72.3486 97.3014 72.7107 97.5329 73.1737L98.4321 74.9901H96.868L96.0786 73.2806C96.0667 73.2538 96.0429 73.2093 96.0014 73.1411C95.9865 73.1143 95.9302 73.0134 95.8352 72.8294C95.663 72.5029 95.5235 72.3011 95.4137 72.218C95.3039 72.1349 95.1377 72.0934 94.9092 72.0934V74.9901H93.5766V68.3716ZM88.3114 69.4905H87.2697C86.7414 69.4905 86.3941 69.5024 86.2279 69.5261C86.0617 69.5528 85.9163 69.6329 85.7976 69.7695C85.6759 69.909 85.6165 70.087 85.6165 70.3126C85.6165 70.5441 85.6759 70.7281 85.7916 70.8646C85.9074 71.0041 86.0528 71.0872 86.2309 71.1199C86.409 71.1555 86.777 71.1703 87.3231 71.1703H88.3114V69.4905ZM88.3114 74.9901V72.2299H88.0384C87.6199 72.2299 87.3231 72.2922 87.151 72.4169C86.9788 72.5445 86.682 72.9214 86.2665 73.5506L85.3019 74.9901H83.7082L84.5125 73.699C84.833 73.1885 85.0853 72.8294 85.2752 72.6217C85.4622 72.4169 85.7026 72.2329 85.9875 72.0696C85.3702 71.9747 84.928 71.758 84.6549 71.4256C84.3789 71.0932 84.2424 70.6955 84.2424 70.2325C84.2424 69.8259 84.3433 69.4697 84.5481 69.1581C84.7499 68.8464 85.017 68.6387 85.3494 68.5318C85.6789 68.425 86.1775 68.3716 86.8393 68.3716H89.644V74.9901H88.3114ZM81.2002 72.3724L80.2891 69.9149L79.3957 72.3724H81.2002ZM83.6547 74.9901H82.2034L81.6247 73.4883H78.9862L78.44 74.9901H77.0273L79.6005 68.3716H81.0073L83.6547 74.9901ZM71.041 74.9901V68.3716H72.3765V70.9774H74.9883V68.3716H76.3209V74.9901H74.9883V72.0963H72.3765V74.9901H71.041ZM65.764 73.8801H67.0609C67.4794 73.8801 67.7733 73.8593 67.9335 73.8207C68.0968 73.7792 68.2422 73.6842 68.3698 73.5417C68.4974 73.3963 68.5627 73.2212 68.5627 73.0075C68.5627 72.7048 68.4529 72.4822 68.2363 72.3397C68.0166 72.1973 67.6456 72.129 67.1173 72.129H65.764V73.8801ZM64.4313 68.3716H65.764V71.019H67.5477C68.3876 71.019 68.996 71.2149 69.3759 71.6096C69.7529 72.0043 69.9398 72.4762 69.9398 73.0283C69.9398 73.4794 69.8271 73.8623 69.5956 74.1798C69.37 74.4944 69.1088 74.7081 68.818 74.8209C68.5241 74.9337 68.1027 74.9901 67.5477 74.9901H64.4313V68.3716ZM58.4034 68.3716H63.0305V74.9901H61.6979V69.4905H59.7123V72.3189C59.7123 73.1262 59.6826 73.6931 59.6292 74.0136C59.5758 74.3342 59.4422 74.5835 59.2345 74.7616C59.0267 74.9426 58.7002 75.0316 58.255 75.0316C58.0977 75.0316 57.8158 75.0168 57.4032 74.9871V73.9513L57.7 73.9572C57.982 73.9572 58.169 73.9216 58.264 73.8445C58.3589 73.7673 58.4094 73.5833 58.4094 73.2895L58.4034 72.1498V68.3716ZM51.779 74.9901V68.3716H56.6731V69.4905H53.1116V70.9596H56.4268V72.0726H53.1116V73.8741H56.8008V74.9901H51.779ZM47.6298 74.9901V69.4905H45.671V68.3716H50.9183V69.4905H48.9624V74.9901H47.6298ZM39.5273 68.3716H40.7768V72.779L43.4509 68.3716H44.7806V74.9901H43.534V70.6688L40.8599 74.9901H39.5273V68.3716ZM33.4371 71.6779C33.4371 72.4258 33.6122 72.9956 33.9565 73.3815C34.3008 73.7673 34.74 73.9632 35.2713 73.9632C35.8025 73.9632 36.2388 73.7703 36.5801 73.3844C36.9214 73.0016 37.0906 72.4258 37.0906 71.6601C37.0906 70.9003 36.9274 70.3334 36.595 69.9594C36.2626 69.5884 35.8203 69.4014 35.2713 69.4014C34.7222 69.4014 34.28 69.5914 33.9416 69.9683C33.6063 70.3453 33.4371 70.9151 33.4371 71.6779ZM32.0629 71.7224C32.0629 71.0457 32.1638 70.4818 32.3657 70.0217C32.517 69.6864 32.7218 69.3836 32.983 69.1165C33.2412 68.8494 33.5261 68.6476 33.8348 68.52C34.2473 68.3449 34.7222 68.2588 35.2594 68.2588C36.2299 68.2588 37.0075 68.5615 37.5922 69.167C38.1769 69.7695 38.4707 70.6124 38.4707 71.6897C38.4707 72.7582 38.1799 73.5952 37.6011 74.1976C37.0194 74.8031 36.2448 75.1029 35.2772 75.1029C34.2948 75.1029 33.5142 74.8031 32.9325 74.2036C32.3538 73.6041 32.0629 72.773 32.0629 71.7224ZM27.6377 69.4905V71.3692H28.3649C28.8932 71.3692 29.2434 71.3336 29.4214 71.2653C29.5966 71.1971 29.7361 71.0872 29.837 70.9418C29.9379 70.7904 29.9883 70.6213 29.9883 70.4254C29.9883 70.185 29.9171 69.9861 29.7746 69.8288C29.6351 69.6715 29.4571 69.5736 29.2404 69.535C29.0801 69.5053 28.7596 69.4905 28.2818 69.4905H27.6377ZM26.3021 74.9901V68.3716H28.442C29.2523 68.3716 29.7835 68.4042 30.0269 68.4695C30.4068 68.5675 30.7244 68.7871 30.9796 69.1165C31.2349 69.4519 31.3625 69.8823 31.3625 70.4076C31.3625 70.8142 31.2883 71.1555 31.1399 71.4315C30.9915 71.7105 30.8075 71.9272 30.5789 72.0874C30.3534 72.2447 30.1219 72.3486 29.8874 72.3991C29.5698 72.4614 29.1098 72.494 28.5044 72.494H27.6377V74.9901H26.3021ZM22.1559 74.9901V69.4905H20.1941V68.3716H25.4414V69.4905H23.4885V74.9901H22.1559ZM18.4608 72.5564L19.7519 72.966C19.553 73.6901 19.2236 74.2273 18.7636 74.5775C18.3035 74.9278 17.7159 75.1029 17.0065 75.1029C16.131 75.1029 15.4098 74.8031 14.8459 74.2036C14.2849 73.6041 14 72.7819 14 71.7402C14 70.6361 14.2849 69.7813 14.8518 69.1729C15.4187 68.5645 16.1636 68.2588 17.0896 68.2588C17.8969 68.2588 18.5558 68.4962 19.0574 68.977C19.3601 69.259 19.5857 69.6656 19.737 70.1939L18.4163 70.5115C18.3362 70.1672 18.1759 69.8971 17.9266 69.6982C17.6773 69.4994 17.3775 69.4014 17.0214 69.4014C16.5346 69.4014 16.134 69.5766 15.8312 69.9297C15.5255 70.28 15.3742 70.8498 15.3742 71.6393C15.3742 72.4762 15.5226 73.0728 15.8253 73.429C16.125 73.7851 16.5139 73.9632 16.9947 73.9632C17.3508 73.9632 17.6535 73.8504 17.9088 73.6219C18.164 73.3963 18.348 73.0401 18.4608 72.5564Z" fill="#1E4C9A"/>
</svg>
