<svg width="30" height="30" viewBox="0 0 30 30" fill="none" xmlns="http://www.w3.org/2000/svg">
<path fill-rule="evenodd" clip-rule="evenodd" d="M6 14.75C6 17.0706 6.92187 19.2962 8.56282 20.9372C10.2038 22.5781 12.4294 23.5 14.75 23.5C17.0706 23.5 19.2962 22.5781 20.9372 20.9372C22.5781 19.2962 23.5 17.0706 23.5 14.75C23.5 12.4294 22.5781 10.2038 20.9372 8.56282C19.2962 6.92187 17.0706 6 14.75 6C12.4294 6 10.2038 6.92187 8.56282 8.56282C6.92187 10.2038 6 12.4294 6 14.75ZM22 14.75C22 16.6728 21.2362 18.5169 19.8765 19.8765C18.5169 21.2362 16.6728 22 14.75 22C12.8272 22 10.9831 21.2362 9.62348 19.8765C8.26384 18.5169 7.5 16.6728 7.5 14.75C7.5 12.8272 8.26384 10.9831 9.62348 9.62348C10.9831 8.26384 12.8272 7.5 14.75 7.5C16.6728 7.5 18.5169 8.26384 19.8765 9.62348C21.2362 10.9831 22 12.8272 22 14.75Z" fill="#7D92A1"/>
<path fill-rule="evenodd" clip-rule="evenodd" d="M11 14.75C11 19.272 12.491 23 14.75 23C17.009 23 18.5 19.272 18.5 14.75C18.5 10.228 17.009 6.5 14.75 6.5C12.491 6.5 11 10.228 11 14.75ZM17 14.75C17 18.512 15.805 21.5 14.75 21.5C13.695 21.5 12.5 18.512 12.5 14.75C12.5 10.988 13.695 8 14.75 8C15.805 8 17 10.988 17 14.75Z" fill="#7D92A1"/>
<path d="M8.35199 10.217L9.35799 9.10498C9.45799 9.19498 9.56699 9.28498 9.68299 9.37198C10.954 10.324 12.983 10.912 15.198 10.912C17.089 10.912 18.85 10.485 20.129 9.75398C20.437 9.57798 20.711 9.38698 20.948 9.18398L21.922 10.325C21.612 10.59 21.261 10.835 20.874 11.055C19.358 11.923 17.34 12.411 15.198 12.411C12.676 12.411 10.333 11.733 8.78299 10.572C8.63395 10.4603 8.49013 10.3419 8.35199 10.217Z" fill="#7D92A1"/>
<path d="M8.35199 19.299L9.35799 20.411C9.45799 20.32 9.56699 20.231 9.68299 20.144C10.954 19.192 12.983 18.604 15.198 18.604C17.089 18.604 18.85 19.031 20.129 19.762C20.437 19.938 20.711 20.129 20.948 20.332L21.922 19.191C21.5962 18.9155 21.2453 18.6711 20.874 18.461C19.358 17.593 17.34 17.105 15.198 17.105C12.676 17.105 10.333 17.783 8.78299 18.944C8.63394 19.0556 8.49013 19.1741 8.35199 19.299Z" fill="#7D92A1"/>
<path d="M6.5 15.5V14H23V15.5H6.5Z" fill="#7D92A1"/>
</svg>
